<?xml version="1.0" encoding="UTF-8"?>
<svg id="coralBanner1" xmlns="http://www.w3.org/2000/svg" viewBox="0 0 1249.22 1000.81">
  <defs>
    <style>
      .cls-1 {
        fill: #ffebde;
        stroke: #570060;
        stroke-miterlimit: 10;
        stroke-width: 3px;
      }

      .cls-2 {
        fill: #efd5d3;
        stroke-width: 0px;
      }
    </style>
  </defs>
  <path class="cls-1" d="M1241.44,819.39c-17.35-12.57-36.52-21.95-57.02-28.01-.33-4.31-.79-8.62-1.34-12.91h52.83c5.97,0,10.8-4.83,10.8-10.8s-4.83-10.8-10.8-10.8h-55.65c-.3,0-.59.06-.88.09-3.82-17.66-9.52-34.9-17.03-51.34,4.16,1.94,8.3,3.92,12.4,6.02,5.3,2.72,11.82.64,14.54-4.68,2.72-5.31.63-11.82-4.68-14.54-24-12.32-49.04-21.94-74.84-28.95,0-2.63-.93-5.26-2.86-7.34-9.96-10.72-19.42-21.36-25.62-33.53-5.66-11.11-8.48-23.52-8.35-35.92,25.19,3.3,50.61,4.98,76.03,4.98,14.44,0,28.88-.54,43.28-1.61,6.15-.46,10.75-5.81,10.3-11.96-.46-6.14-5.73-10.69-11.96-10.3-38.04,2.83-76.38,1.73-114.2-3.18,0-.01,0-.03.01-.04,1.51-4.83-.57-9.9-4.7-12.42,39.81-36.74,72.72-84,97.94-140.8,2.42-5.45-.04-11.84-5.49-14.25-5.45-2.43-11.84.04-14.26,5.49-21.52,48.47-48.81,89.56-81.32,122.57-7.92-22.07-12.14-45.79-12.2-69.16-.01-6.15-5.01-11.13-11.16-11.13h-.03c-5.17.01-9.46,3.55-10.72,8.32-23.59-.87-41.24,13.38-58.31,27.24-12.43,10.08-24.16,19.61-37.3,22.69-7.14,1.67-15.05,1.48-23.41,1.22l8.65-8.68c1.07-1.07,2.15-2.16,3.22-3.24,1.08-.23,2.15-.57,3.16-1.14,2.97-1.67,4.84-4.5,5.45-7.6,9.21-9.44,18.26-19.25,26.49-29.84,44.01-6.83,79.51-21.63,105.69-44.12,19.56-16.79,34.03-37.69,48.02-57.9,3.51-5.07,2.24-12.01-2.83-15.52-5.06-3.5-12.01-2.24-15.52,2.83-13.18,19.05-26.82,38.74-44.2,53.67-18.86,16.19-43.66,27.88-73.93,34.98,9.74-17.85,16.22-36.8,20.68-56.34,29.16-.91,57.5-17.2,72.14-42.69,2.8-4.88,1.47-10.95-2.83-14.31,9.96-3.75,19.59-8.34,28.6-13.85,5.26-3.21,6.91-10.08,3.69-15.34-3.21-5.26-10.09-6.92-15.34-3.69-22.91,14.02-50.09,21.53-77.02,21.64.71-9.7,1.28-19.39,1.84-29.03l-21.57-1.26c-1.55,26.54-3.08,52.35-7.19,76.88-3.06,1.61-5.34,4.58-5.88,8.26-.48,3.27.55,6.39,2.52,8.74-.25,1.09-.49,2.18-.75,3.27-.25-.56-.52-1.11-.88-1.64l-40.09-59.84c-3.42-5.11-10.36-6.49-15.48-3.06-5.12,3.43-6.49,10.36-3.06,15.48l40.09,59.84c2.15,3.21,5.68,4.95,9.28,4.95,2.14,0,4.29-.61,6.2-1.89.05-.03.09-.08.14-.11-2.88,9.3-6.4,18.33-10.69,27.08-.88-2.02-2.34-3.8-4.36-5.05-14.8-9.12-26.57-23.02-33.14-39.11-2.33-5.71-8.84-8.44-14.55-6.11-5.71,2.33-8.44,8.84-6.11,14.55,8.35,20.44,23.29,38.08,42.08,49.67,1.83,1.13,3.85,1.66,5.85,1.66.55,0,1.09-.12,1.63-.21-1.42,2.24-2.88,4.47-4.41,6.65-3.3.42-6.63.82-10.03,1.15-6.13.6-10.62,6.07-10.01,12.2.28,2.88,1.64,5.4,3.63,7.19-2.65,2.98-5.37,5.92-8.11,8.82-10.29-16.35-22.1-31.79-35.19-46.07,3.02-24.35,2.56-48.94-1.44-73.17-1.01-6.09-6.79-10.2-12.83-9.19-6.08,1.01-10.19,6.75-9.19,12.83,2.68,16.21,3.6,32.6,2.84,48.96-9.13-8.32-18.73-16.12-28.74-23.29-5.01-3.59-11.98-2.44-15.57,2.57-3.59,5.01-2.44,11.98,2.57,15.57,32.69,23.43,60.61,53.86,81.41,88.32-.53.54-1.07,1.08-1.6,1.61l-26.32,26.39c-1.09.31-2.17.61-3.26.99-1.33.47-2.5,1.19-3.52,2.05l-23.74-54.2c-2.39-5.46-8.76-7.96-14.23-5.56-5.47,2.39-7.95,8.76-5.56,14.23l28.28,64.57-17.84,17.88c-3.02-9.12-6.89-17.96-11.57-26.27-2.93-5.2-9.52-7.03-14.72-4.1-5.2,2.93-7.03,9.52-4.1,14.72,5.82,10.31,10.16,21.58,12.93,33.17l-18.13,18.18c-4.35-11.88-11.43-22.66-20.51-31.42.73-1.18,1.27-2.5,1.51-3.95,4.35-26.4,13.22-51.6,26.37-74.9,2.93-5.19,1.1-11.79-4.1-14.72-5.19-2.93-11.78-1.09-14.72,4.1-3.89,6.89-7.41,13.95-10.61,21.13l-25.8-14.44c-5.22-2.91-11.79-1.05-14.7,4.16-2.91,5.21-1.05,11.79,4.15,14.7l28.35,15.86c-3.87,11.24-6.9,22.77-9.14,34.52-1.78-.94-3.58-1.83-5.43-2.63-2.8-1.21-5.58-2.23-8.27-3.22-5.07-1.86-9.86-3.62-13.5-6.24-10.16-7.29-13.59-22.09-16.47-37.92-1.07-5.87-6.67-9.78-12.56-8.69-5.87,1.07-9.76,6.69-8.69,12.56,3.56,19.54,8.43,39.62,25.14,51.6,6.03,4.33,12.73,6.79,18.64,8.96,2.4.88,4.8,1.76,7.13,2.77,17.99,7.79,31.93,25.28,35.52,44.55.05.25.14.48.2.73l-26.27,26.34c-2.27,1.3-4.51,2.72-6.71,4.26-.76-14.97-5.15-29.79-12.94-42.53-3.11-5.09-9.76-6.68-14.85-3.57-5.09,3.12-6.69,9.77-3.57,14.85,9.77,15.97,12.54,36.25,7.39,54.26-.37,1.29-.45,2.59-.35,3.85l-92.51,92.75c-2.51,2.52-5.04,5.04-7.57,7.57-3.68-.74-7.36-1.59-11.03-2.69-5.72-1.71-11.73,1.54-13.44,7.26-1.62,5.42,1.25,11.07,6.43,13.1-8.07,7.7-16.33,15.21-24.88,22.32.14-8.13-.54-16.27-2.14-24.22-1.18-5.85-6.86-9.65-12.72-8.46-5.85,1.18-9.64,6.87-8.46,12.72,2.5,12.43,2.28,25.43-.43,37.86-4.14,2.79-8.37,5.45-12.68,7.97-18.08-2.2-35.93-6.01-53.22-11.49,8.08-21.3,17.23-42.03,27.42-62.13,22.76-1.45,50.5-4.91,71.65-21.26,15.36-11.87,24.75-28.24,33.84-44.08,2.27-3.96,4.53-7.91,6.89-11.76,12.98-21.25,26.92-32.86,41.43-34.51,5.93-.68,10.18-6.03,9.51-11.96-.68-5.93-6.02-10.15-11.96-9.51-21.48,2.45-40.79,17.49-57.42,44.72-2.46,4.02-4.82,8.14-7.19,12.27-8.4,14.65-16.34,28.48-28.31,37.73-12.46,9.63-28.31,13.58-46.31,15.59,16.6-29.67,35.54-57.85,56.72-84.33,6.54-8.18,13.47-16.41,20.16-24.36,20.96-24.88,42.63-50.61,57.9-81.03,8.99-17.9,15.42-36.76,20.68-55.88,30.92-3.09,59.41-20.71,77.15-45.93,6.29-2.26,12.79-3.91,19.38-4.93.03,0,.06,0,.09,0,1.03,0,2.05-.19,3.04-.47,8.23-1.03,16.57-1.11,24.82-.18,6.13.68,11.65-3.72,12.34-9.84.69-6.12-3.72-11.64-9.84-12.34-3.65-.41-7.32-.6-10.99-.7,4.62-11.78,6.64-24.58,6.02-37.24,8.22-9.56,18.63-17.05,30.38-21.74,4.14-1.65,6.9-5.61,7.02-10.06.23-8.61.08-16.7-.35-24.43,14.6-7.68,29.1-16.19,41.75-27.84l42.58,3.88c.34.03.68.05,1.02.05,5.7,0,10.57-4.35,11.1-10.15.56-6.13-3.96-11.56-10.1-12.12l-27.11-2.47c8.69-13.9,13.02-29.09,12.17-43.79-.36-6.16-5.68-10.77-11.78-10.5-6.15.36-10.85,5.63-10.5,11.78.77,13.38-4.98,27.74-15.93,40.26-5.58.12-10.3,4.4-10.82,10.09,0,.1,0,.2,0,.31-7.62,6.28-16.18,11.63-25.03,16.56-2.73-15.95-7.25-30.02-13.8-42.74-2.82-5.48-9.55-7.63-15.02-4.82-5.48,2.82-7.64,9.55-4.82,15.02,6.49,12.61,10.67,27.03,12.79,43.99-3.63,3.31-4.79,8.72-2.44,13.3.92,1.8,2.29,3.2,3.88,4.23.15,3.81.23,7.73.21,11.78-7.35,3.6-14.21,8.1-20.46,13.34-1.67-4.53-3.69-8.93-6.15-13.1-2.79-4.73-6.03-9.38-9.17-13.88-10.39-14.91-16.92-25.37-13.17-34.63,2.31-5.71-.44-12.21-6.15-14.53-5.71-2.31-12.21.44-14.53,6.15-8.59,21.17,4.79,40.36,15.54,55.78,3.03,4.35,5.89,8.45,8.25,12.45,4.21,7.14,6.82,15.12,7.94,23.31-.15,1.52,0,3.05.46,4.51.88,12.94-2,26.15-8.49,37.36.82-2.62,1.56-5.27,2.17-7.96,1.35-6.01-2.44-11.98-8.45-13.33-5.99-1.33-11.98,2.43-13.33,8.45-6.99,31.22-34.5,57-65.75,63.65,2.14-9.19,4.12-18.38,6.09-27.49,2.74-12.73,5.5-25.54,8.18-38.41,1.5-.77,2.86-1.87,3.93-3.33,7.07-9.62,17.84-16.51,29.54-18.9,6.04-1.23,9.94-7.12,8.71-13.16-1.23-6.04-7.14-9.93-13.16-8.71-7.72,1.57-15.13,4.55-21.91,8.57,5.56-29.21,10.29-58.74,13.23-88.54,1.47-.9,2.78-2.1,3.74-3.68,2.31-3.8,7.88-5.42,16.79-7.63,5.73-1.42,11.65-2.89,17.35-5.7,14.9-7.35,24.8-23.46,24.62-40.08-.07-6.12-5.05-11.04-11.15-11.04h-.12c-6.16.07-11.1,5.12-11.04,11.28.09,8.09-4.92,16.25-12.17,19.82-3.54,1.75-8.06,2.87-12.86,4.06-4.08,1.01-8.55,2.15-12.92,3.85.65-11.92,1-23.88.9-35.87-.11-12.98-.65-26.33-1.17-39.26-.05-1.15-.09-2.3-.14-3.46.34-.56.62-1.16.86-1.79,1.89-1.91,3.82-3.78,5.79-5.61,1.1.24,2.24.36,3.41.24,16.24-1.61,32.56-.68,48.53,2.75.79.17,1.58.25,2.36.25,5.15,0,9.77-3.58,10.9-8.81,1.3-6.03-2.54-11.96-8.56-13.25-8.88-1.91-17.86-3.13-26.89-3.68,4.99-3.04,10.09-5.87,15.32-8.41,5.55-2.69,7.86-9.37,5.17-14.91-2.69-5.55-9.35-7.85-14.91-5.17-15.33,7.44-29.79,16.92-42.92,27.95-.63-39.95,2.25-79.16,21.35-111.23,3.05-5.12,1.37-11.76-3.75-14.81-5.12-3.05-11.76-1.37-14.81,3.75-13,21.82-19.37,45.73-22.3,70.53-1.61-.61-3.36-.9-5.18-.67-24.54,3.12-49.61-.26-72.48-9.77-5.5-2.29-11.83.32-14.12,5.83-2.29,5.51.32,11.83,5.83,14.12,19.98,8.31,41.4,12.55,62.93,12.55,6.86,0,13.73-.43,20.56-1.3.26-.03.5-.12.76-.18-.65,13.26-.59,26.68-.23,40.1-16.9-6.86-32.59-16.73-46.02-29.07-4.4-4.04-11.23-3.74-15.26.64-4.03,4.39-3.75,11.23.64,15.26,15.87,14.59,34.52,26.11,54.6,33.97-.88,3.93.35,8.19,3.64,10.97,1.1.93,2.34,1.59,3.62,2.03.32,8.04.56,16.08.71,24.07l-17-19.56c-4.05-4.66-11.1-5.14-15.74-1.1-4.65,4.05-5.15,11.09-1.1,15.74l32.75,37.67c.23.27.51.46.76.7-2.77,66.17-16.93,131.94-30.69,195.79-7.46,34.61-15.18,70.39-30.89,101.68-14.13,28.14-34.04,51.78-55.12,76.81-3.35,3.98-6.76,8.02-10.15,12.11,1.78-13.82,1.55-27.92-.64-41.69,10.02-9.2,21.07-17.22,33.02-23.76,5.23-2.87,7.15-9.43,4.29-14.67-2.87-5.23-9.43-7.14-14.67-4.29-3.88,2.13-7.67,4.4-11.39,6.79,7.56-16.58,12.03-34.62,13.14-52.82,9.87-14.12,13.06-30.83,16.15-47.06,2.11-11.06,4.14-21.53,8.11-30.79,1.11-.4,2.18-.97,3.15-1.76,3.3-2.66,4.58-6.87,3.73-10.75,2.37-3.61,4.97-7.19,7.65-10.88,5.6-7.71,11.39-15.69,15.73-24.89,4.99-10.6,7.54-21.75,10.02-32.54,2.95-12.89,5.75-25.07,12.34-34.77,1.53-2.25,3.27-4.53,5.02-6.83,8.04-10.54,19.05-24.99,12.26-41.43-2.28-5.52-8.6-8.13-14.11-5.86-5.51,2.28-8.14,8.6-5.86,14.11,1.91,4.61-2.72,11.23-9.47,20.08-1.92,2.52-3.91,5.13-5.71,7.78-8.88,13.07-12.26,27.82-15.53,42.09-2.32,10.12-4.51,19.68-8.51,28.16-3.46,7.36-8.42,14.18-13.66,21.4-.96,1.32-1.92,2.66-2.88,4-7.67-12.52-13.48-26.19-17.19-40.41,3.87-9.43,13.34-17.22,23.41-25.42,14.89-12.13,31.76-25.88,31.12-48.34-.17-6.05-5.13-10.84-11.15-10.84-.11,0-.22,0-.32,0-6.16.18-11.01,5.31-10.84,11.47.3,10.7-8.45,18.63-22.91,30.41-4.62,3.76-9.46,7.72-14,12.08-.25-5.24-.25-10.49.08-15.73.37-5.96-4.15-11.08-10.1-11.46-5.95-.34-11.08,4.15-11.45,10.1-2.39,38.21,8.81,77.13,30.86,108.4-.2.41-.43.8-.62,1.21-3.09,6.71-5.21,13.69-6.9,20.7-5.81-7.28-12.8-13.63-19.38-19.59-9.86-8.93-19.18-17.36-23.96-27.54-3.64-7.74-4.63-16.73-4.6-25.8,8.96-19.85,15.32-41.07,18.78-62.69.91-.39,1.79-.86,2.6-1.51,14.15-11.3,24.62-27.04,30-44.33,16.72-12.05,28.88-30.67,32.68-50.88.41-2.21.74-4.45,1.06-6.68.64-4.46,1.24-8.67,2.68-12.01,1.42-3.29,4.23-5.21,5.23-5.14,5.92.63,11.27-3.61,11.93-9.54.66-5.93-3.61-11.27-9.54-11.93-12.98-1.43-23.15,8.03-27.46,18.06-.86,1.99-1.48,4-2.02,5.99-10.04-16.74-22.09-32.16-36.1-46.01-4.25-4.19-11.08-4.15-15.28.09-4.19,4.25-4.15,11.08.09,15.28,17.93,17.71,32.87,39.1,43.47,62.01-1.75,3.66-3.81,7.17-6.26,10.42-1.86-1.77-4.3-2.95-7.07-3.1-6.09-.33-11.41,4.39-11.74,10.55-.17,3.26-.68,6.49-1.33,9.69-.1.05-.19.12-.3.17-5.32,2.7-7.45,9.2-4.75,14.52.04.09.12.15.16.24-1.84,4.02-4.04,7.85-6.6,11.45-1.8-3.3-5.2-5.63-9.23-5.82-6.29-.28-11.38,4.46-11.68,10.62-.97,20.54-4.96,41.14-11.56,60.76-4.44,1.06-7.94,4.79-8.32,9.59-.34,4.28-.7,8.84-.91,13.56-.28.59-.52,1.21-.8,1.8-1.75,3.66-1.29,7.78.78,10.94.33,7.12,1.36,14.36,3.62,21.42-3.88-.07-7.61,2.14-9.3,5.91l-40.82,91.35c-14.41-30.38-26.08-59.98-20.75-87.97,8.09-3.98,17.85-4.66,26.28-1.46,5.14,1.94,10.91-.64,12.87-5.8,1.95-5.15-.65-10.91-5.8-12.87-7.93-3-16.61-3.89-25.06-2.85,3.08-6.04,6.66-12.03,10.35-18.2,4.32-7.22,8.7-14.56,12.43-22.28,6.24-.47,12.41-1.79,18.2-4.03,5.57-2.15,8.33-8.4,6.18-13.97-2.15-5.56-8.4-8.33-13.97-6.18-.76.29-1.53.54-2.3.79.19-.95.43-1.87.59-2.84,1.67-10.21,1.19-20.31.57-30.13,28.24-9.9,50.25-34.53,56.61-63.88,1.31-6.02-2.52-11.96-8.54-13.27-6-1.3-11.96,2.52-13.27,8.54-4.15,19.14-17.89,36.07-35.48,44.73.29-4.7.99-9.24,2.44-13.55,1.75-5.23-1.06-10.88-6.29-12.63-5.24-1.75-10.88,1.07-12.63,6.29-1.12,3.36-1.91,6.72-2.48,10.08-2.16-4.8-4.47-9.53-6.92-14.19,14.24-12.72,24.95-29.29,31.24-47.44l57.85,7.39c.46.06.93.09,1.38.09,5.36,0,10-3.98,10.7-9.44.76-5.92-3.43-11.33-9.34-12.08l-55.46-7.08c1.06-7.08,1.5-14.23,1.2-21.35,1.93-.58,3.74-1.63,5.17-3.25,8.41-9.54,14.75-21.03,18.35-33.22,1.74-5.91-1.64-12.12-7.55-13.86-5.93-1.74-12.12,1.64-13.86,7.55-1.64,5.58-4.14,10.9-7.21,15.87-2.56-4.12-7.58-6.26-12.48-4.86-5.93,1.69-9.37,7.86-7.68,13.78,3.63,12.77,4,26.31,1.59,39.39-2.36,1.69-4.06,4.3-4.46,7.41-.27,2.13.12,4.18.97,5.98-4.53,13.3-12.01,25.59-21.93,35.42-4.06-6.28-8.37-12.38-12.96-18.28l4.54-61.18c.45-6.15-4.16-11.49-10.3-11.95-6.13-.4-11.49,4.16-11.95,10.3l-3.47,46.75c-1.37.4-2.69,1.08-3.82,2.1-4.11,3.67-4.46,9.98-.79,14.09,1.45,1.62,2.8,3.32,4.2,4.98.89,2.23,2.47,4.11,4.51,5.37,5.72,7.2,10.99,14.77,15.84,22.6-.78,3.08-.3,6.45,1.69,9.23,1.51,2.11,3.64,3.49,5.95,4.16,7.79,14.65,14.12,30.08,18.65,46,.95,3.35,3.51,5.79,6.59,6.77.05,4.64-.16,9.16-.88,13.54-.4,2.48-1.02,4.9-1.72,7.31-.24-.05-.48-.07-.71-.12-5.82-1.23-11.57,2.5-12.8,8.34-.98,4.64,1.21,9.17,5.07,11.47-2.6,4.79-5.46,9.59-8.39,14.48-7.26,12.13-14.72,24.67-18.94,38.85-3.58,2.95-4.62,7.9-2.68,11.97-.6,3.78-1.01,7.56-1.15,11.33-.65-11.9-1.58-23.49-2.48-34.48-.5-6.14-5.83-10.68-12.03-10.21-6.14.5-10.71,5.89-10.21,12.03.22,2.63.43,5.31.65,8.01l-6.04-19.83c-2.63-8.65-5.62-18.46-11.23-27.26-5.54-8.71-13.09-15.53-19.75-21.55l-10.21-9.23c.23-1.65.13-3.36-.44-5.05l-23.55-70.06c-1.96-5.84-8.27-8.98-14.13-7.02-5.84,1.96-8.98,8.29-7.02,14.13l13.14,39.1-2.09-1.88c-4.58-4.14-11.63-3.77-15.76.8-4.13,4.57-3.77,11.63.8,15.76l44.29,40c6.15,5.56,11.96,10.81,15.89,16.98,3.98,6.24,6.38,14.14,8.71,21.78l26.03,85.45c.57,1.88,1.61,3.49,2.93,4.76-1.11,14.07-3.34,28-7.23,41.39-1.67-.81-3.54-1.27-5.52-1.18-6.04.36-10.64,5.47-10.46,11.49l-45.58-115.35c-2.26-5.73-8.75-8.54-14.48-6.28-5.73,2.27-8.54,8.75-6.28,14.48l70.55,178.54,3.03,50.96c.02.41.05.83.08,1.25-16.98-6.73-33.56-14.44-47.84-25.21-4.33-3.26-8.29-6.75-11.89-10.39-1.26-45.26-1.89-91.13-1.84-136.45,0-6.16-4.98-11.16-11.14-11.17h-.01c-6.16,0-11.15,4.99-11.16,11.14-.04,29.06.23,58.34.74,87.55-.6-5.82-5.54-10.23-11.53-10.01-6.16.27-10.93,5.47-10.67,11.63.65,15.21,5.79,30.32,14.67,44.22-10.14-1.09-20.13-3.17-29.84-6.2.14-1.1.16-2.23-.05-3.37-6.21-33.69-1.02-67.72,4.47-103.75,4.4-28.84,8.94-58.66,7.2-88.58l-.2-3.23c-.42-6.45-.82-12.55.61-17.6,1.14-4.01,4.21-7.5,6.71-7.62,6.15-.29,10.9-5.52,10.61-11.68-.29-6.15-5.44-10.87-11.68-10.61-7.79.37-14.19,4.07-18.93,9.19-15.19-45.09-44.53-84.99-83.66-112.61-5.03-3.56-12-2.35-15.55,2.68-3.55,5.03-2.35,12,2.68,15.55,21.08,14.87,38.97,33.73,52.91,55.15-6.92-1.06-13.88-1.47-20.48-1.85-16.75-.96-31.21-1.79-38.67-11.6-3.73-4.9-10.73-5.86-15.64-2.12-4.9,3.73-5.85,10.73-2.12,15.64,13.68,17.98,35.71,19.25,55.15,20.37,14.37.82,27.94,1.61,37.21,8.27.08.06.17.09.25.15,6.83,15.42,11.78,31.72,14.57,48.5.47,2.81,1.95,5.18,4.01,6.83.46,9.65.25,19.42-.45,29.24-8.59-3.26-17.41-5.41-26.05-7.49-4.61-1.11-8.97-2.16-13.28-3.37-18.55-5.21-30.56-13.06-35.71-23.34-2.75-5.51-9.46-7.74-14.97-4.99-5.51,2.76-7.74,9.46-4.99,14.97,8.07,16.14,24.77,27.87,49.63,34.85,4.71,1.32,9.48,2.47,14.08,3.58,10.34,2.49,20.18,4.89,28.9,9-1.25,9.84-2.73,19.66-4.21,29.36-.9,5.93-1.81,11.9-2.67,17.89-20.99-9.79-40.15-23.71-55.87-40.69-4.18-4.52-11.24-4.8-15.77-.61-4.52,4.18-4.79,11.24-.61,15.77,19.27,20.82,43.18,37.5,69.32,48.58-2.1,19.9-2.84,40.02-.3,60.13-3.08-1.54-6.11-3.18-9.09-4.93-5.31-3.12-12.15-1.34-15.27,3.96-3.12,5.31-1.35,12.15,3.96,15.27,26.37,15.5,56.47,24,87.06,24.56.07,0,.14,0,.21,0,1.78,0,3.44-.46,4.93-1.2,3.42,3.22,7.06,6.32,10.95,9.25,19.44,14.67,41.45,23.89,63.32,32.11,1.9,15.73,5.55,32.1,13.7,46.76-3.54,15.23-6.75,31.78-8.77,48.93-1.86-2.16-3.85-4.2-5.96-6.11.08-1.24,0-2.51-.35-3.77l-18.77-66.72c-1.67-5.93-7.84-9.38-13.76-7.72-5.93,1.67-9.39,7.83-7.72,13.76l15.56,55.31c-1.44.97-2.7,2.26-3.56,3.91-2.76,5.29-.71,11.81,4.58,14.57,13.26,6.92,23.05,20.96,24.95,35.78.31,2.42,1.43,4.53,3.02,6.15.16,4.1.42,8.19.8,12.27-9.61-7.65-19.56-14.22-30.22-18.83-20.4-26.64-28.47-62.42-21.06-95.2,1.31-5.82-2.34-11.6-8.15-12.92-5.81-1.31-11.6,2.34-12.92,8.15-1.13,4.99-1.93,10.04-2.47,15.11-8.98-7.85-19.83-13.72-30.49-19.47-10.29-5.55-20.01-10.79-27.69-17.56-12.18-10.73-19.73-25.98-27.72-42.13-3.66-7.38-7.44-15.02-11.75-22.33-9.62-16.32-20.7-27.21-31.84-34.09-.17-26.02-1.01-52.19-2.6-78.06-.38-6.15-5.63-10.82-11.82-10.45-6.15.38-10.83,5.67-10.45,11.82.64,10.47,1.12,21.01,1.53,31.56-25.31-4.44-48.24-21.45-59.2-44.81-2.62-5.58-9.26-7.98-14.84-5.36-5.57,2.62-7.98,9.26-5.36,14.84,14.66,31.22,46.02,53.52,80.1,57.94.1,4.56.22,9.12.28,13.68-8.14-1.48-15.75-1.07-22.19.66-5.95,1.59-9.48,7.71-7.89,13.66,1.59,5.95,7.71,9.5,13.66,7.89,5.5-1.48,11.08-1.07,16.52.65,0,.48,0,.97,0,1.45-.03,6.16,4.95,11.18,11.11,11.21h.05c2.46,0,4.72-.83,6.57-2.18,6.67,5.82,12.6,13.2,17.15,20.93,3.9,6.61,7.33,13.55,10.97,20.9,8.6,17.37,17.49,35.33,32.97,48.97,9.59,8.45,20.9,14.55,31.84,20.45,17.17,9.26,32,17.26,37.31,31.83.97,2.66,2.86,4.71,5.16,5.96,2.43,13.88,6.91,27.4,13.36,39.92-10.6-.44-20.81,1.34-30.75,3.53-12.4-44.71-57.34-78-103.7-76.25-5.96.21-10.62,5.22-10.4,11.19.21,5.83,5,10.41,10.79,10.41.13,0,.27,0,.4,0,35.75-1.26,71.55,25.03,81.71,59.34-9.75,1.84-19.08,2.68-27.82.37-5.22-1.38-10.4-3.94-15.9-6.64-1.52-.75-3.04-1.5-4.57-2.23-14.58-6.95-29.94-12.05-45.68-15.28-.59-1.62-1.53-3.14-2.89-4.38-11.83-10.85-14.11-30.16-16.31-48.82l-.7-5.89c-1.18-9.5-3.1-18.01-5.68-25.57l14.4-10.91c4.91-3.72,5.88-10.72,2.16-15.63-3.72-4.91-10.72-5.88-15.63-2.16l-11.13,8.43c-6.24-8.53-14.1-14.45-23.45-17.57-5.84-1.96-12.17,1.21-14.11,7.05-1.95,5.84,1.21,12.16,7.05,14.11,16.93,5.65,22.45,30.61,24.24,44.99l.69,5.76c.05.4.1.81.14,1.21-16.63,1.98-33.58,1.24-51.41.44-8.71-.39-17.71-.79-26.64-.84-.53,0-1.05,0-1.58,0-38.33,0-66.98,8.17-87.54,24.97-4.77,3.9-5.48,10.92-1.58,15.7,2.2,2.7,5.41,4.1,8.65,4.1,2.48,0,4.98-.82,7.05-2.52,16.42-13.41,40.44-19.93,73.41-19.93.48,0,.97,0,1.46,0,2.04.01,4.13.09,6.19.14-10.44,10.75-18.58,23.81-23.3,37.92-1.95,5.84,1.2,12.17,7.05,14.12,1.17.39,2.37.58,3.54.58,4.67,0,9.02-2.95,10.58-7.62,5.69-17.03,17.76-32.16,33.1-41.5,1.01-.62,1.85-1.4,2.59-2.25,13.76.46,27.75.48,41.73-1.23,1.67,8.13,4.08,16.13,7.91,23.48-17.65-.94-35.42.4-52.79,4.16-5.83,1.26-9.53,7.01-8.27,12.84,1.26,5.84,7.03,9.53,12.84,8.27,30.19-6.54,61.78-4.98,91.15,4.19-2.97,2.41-5.54,5.31-7.51,8.66-3.03,5.14-1.33,11.76,3.81,14.8,1.73,1.02,3.62,1.5,5.48,1.5,3.7,0,7.3-1.9,9.31-5.31,2.65-4.49,9.08-6.95,14.06-5.4,2.66.83,5.38.55,7.72-.52,4.65,2.2,9.49,4.27,14.82,5.68,17.91,4.74,35.12.74,51.76-3.14,11.71-2.72,22.78-5.28,33.43-4.72,5.8.31,11.41,1.57,16.89,3.53.55.65,1.07,1.34,1.64,1.98,2.14,2.42,5.11,3.65,8.1,3.65.71,0,1.41-.09,2.11-.22,13,7.19,25.36,17.93,37.73,29.53.96,3.35,2.01,6.68,3.19,9.97-.42.51-.81,1.06-1.14,1.66-8.76,15.93-27.57,25.69-45.58,23.78-5.02-.53-9.55,2.47-11.23,6.98-8.11-2.73-16.34-5.11-24.65-7.12-4.53-1.1-9.11-2.08-13.68-3.08-14.01-3.03-27.24-5.89-39.09-11.73-5.28-2.6-10.36-5.84-15.73-9.26-2.66-1.69-5.37-3.41-8.15-5.09-.06-.04-.11-.09-.18-.13-.06-.04-.13-.06-.19-.09-2.98-1.79-6.05-3.51-9.25-5.09-28.16-13.88-62.9-13.41-90.68,1.23-3.2,1.69-5.35,4.87-5.71,8.48-.36,3.6,1.1,7.15,3.91,9.44l6.21,5.09c4.62,3.79,11.41,3.11,15.2-1.51,1.78-2.17,2.57-4.82,2.43-7.42,18.73-6.05,39.75-4.89,57.61,3.44-3.88,7.37-7.26,15.02-10.12,22.88l-63.94.12c-.17-.09-.32-.2-.5-.28-25.52-10.94-49.26-27.23-68.64-47.12-4.17-4.28-11-4.37-15.27-.2-4.27,4.16-4.37,11-.2,15.27,3.13,3.21,6.39,6.31,9.71,9.34-15.56-.02-31.1,4.1-44.55,12.2-5.28,3.18-6.98,10.04-3.8,15.32,2.1,3.48,5.79,5.4,9.57,5.4,1.96,0,3.94-.52,5.75-1.6,15.95-9.61,36.74-11.65,54.27-5.33,3.69,1.33,7.61.58,10.52-1.63.89.57,1.76,1.17,2.65,1.73-14.43,4-23.5,11.92-27,23.72-1.7,5.72,1.56,11.73,7.28,13.43,1.02.31,2.06.45,3.08.45,4.66,0,8.96-3.04,10.35-7.73,2.92-9.82,21.36-11.32,32.08-11.34l72.18-.13c-7.26,30.73-7.08,63.3,1.19,93.57,1.31,4.8,5.67,7.96,10.41,7.96.94,0,1.9-.12,2.85-.39,5.75-1.57,9.15-7.51,7.57-13.27-7.84-28.71-7.44-59.76.45-88.64,4.08-1.55,6.99-5.47,6.98-10.09,0-2.17-.66-4.18-1.76-5.87,2.22-5.79,4.75-11.44,7.6-16.93,5.16,3.28,10.5,6.61,16.28,9.46,14.23,7.01,29.4,10.29,44.07,13.47,4.41.95,8.81,1.91,13.18,2.96,20.25,4.89,39.95,12.14,58.56,21.54,7.86,3.97,14.57,10.31,15.96,15.08.41,1.42.19,2.22-.31,3.05-1.58,2.65-1.87,5.71-1.09,8.46-3.32,3.17-6.81,6.14-10.57,8.82-4.86,3.46-5.99,10.21-2.53,15.06,2.11,2.96,5.43,4.53,8.81,4.53,2.17,0,4.36-.65,6.26-2,38.78-27.65,55.08-74.99,70.84-120.77,1.12-3.26,2.25-6.45,3.38-9.68,0,0,.02,0,.03.01,15.11,4.83,30.63,8.42,46.36,10.92,1.98,3.45,5.57,5.47,9.33,5.47,1.66,0,3.34-.38,4.91-1.19,1.23-.63,2.43-1.3,3.65-1.96,13.31,1.36,26.71,1.91,40.1,1.64,11.25,2.33,21.66,11.78,31.75,20.97l3.11,2.82c16.48,14.87,32.07,22.35,46.5,22.35,4.19,0,8.29-.63,12.29-1.9,5.69-1.8,8.84-7.87,7.03-13.56-1.8-5.69-7.88-8.84-13.56-7.03-9.91,3.14-22.62-2.21-37.78-15.9l-3.04-2.76c-2.83-2.58-5.75-5.22-8.77-7.81,17.92-2.41,35.62-6.34,52.84-11.68.57,2.94,2.31,5.64,5.1,7.28,20.76,12.16,44.41,19.69,68.39,21.78,5.32.46,10.62.66,15.89.66,18.03,0,35.8-2.36,53.11-4.66l67.51-8.97c4.32,7.63,9.23,14.92,14.7,21.75,2.13,2.66,5.27,4.05,8.44,4.05,2.37,0,4.75-.77,6.75-2.37,4.66-3.73,5.4-10.53,1.67-15.18-2.91-3.63-5.57-7.45-8.11-11.35l12.52-1.66c5.92-.78,10.07-6.21,9.29-12.13-.78-5.92-6.27-10.07-12.13-9.29l-20.71,2.75c-5.63-12.65-9.5-26.07-11.36-39.76,35.09,7.05,70.64,21.66,103.91,43.36,3,1.96,5.98,4.03,8.96,6.09-2.61,1.43-4.65,3.88-5.38,7.01-5.67,24.51-.3,51.36,14.36,71.8,2.11,2.94,5.42,4.51,8.79,4.51,2.18,0,4.38-.66,6.28-2.02,4.85-3.48,5.96-10.22,2.48-15.07-11.1-15.48-15.16-35.79-10.87-54.35.05-.21.04-.42.08-.63,8.92,6.62,17.73,13.43,26.38,20.14.6.46,1.2.93,1.8,1.4-3.94,20.87,2.11,43.3,16.22,59.25,2.13,2.42,5.11,3.65,8.1,3.65,2.54,0,5.1-.89,7.15-2.71,4.47-3.95,4.89-10.78.94-15.25-6.99-7.9-11.07-18.47-11.78-29.14,29.89,22.45,61.46,43.28,98.25,53.56,1.01.28,2.02.41,3.01.41,4.88,0,9.36-3.23,10.74-8.16,1.66-5.93-1.81-12.09-7.74-13.75-13.64-3.81-26.5-9.25-38.91-15.8.49-2.06.38-4.28-.45-6.4-15.54-39.79-20.25-82.98-13.72-125.16,10.64-.85,21.54-2.86,31.8-7.37,4.13,19.17,5.91,38.85,5.07,58.46-.39,8.92-3.13,13.78-4.55,13.98-.49.07-.99.07-1.5.09-2.82.11-7.54.3-11.85,3.59-5.78,4.4-7.06,13.07-2.85,19.33,2.47,3.68,6.4,5.68,10.44,5.68,2.15,0,4.34-.57,6.34-1.75,2.38-1.4,4.02-3.56,4.8-5.99.56-.14,1.1-.32,1.64-.49,11.5,18.85,26.85,35.6,44.69,48.58,1.92,1.39,4.14,2.07,6.35,2.07,3.34,0,6.63-1.54,8.74-4.45,3.51-4.83,2.44-11.58-2.38-15.09-16.58-12.07-30.74-27.83-40.95-45.61-.26-.45-.58-.84-.89-1.24,2.04-5,3.27-10.96,3.56-17.74.1-2.31.16-4.62.2-6.93,15.59,5.35,30.24,12.91,43.66,22.62,1.91,1.39,4.13,2.05,6.33,2.05,3.34,0,6.64-1.55,8.76-4.47,3.5-4.83,2.42-11.59-2.42-15.08ZM1007.67,325.57c.55,0,1.09.02,1.64.02,14.18,0,28.43-1.93,42.27-5.47-10.18,15.73-28.18,26.43-46.88,28.62,1.19-7.68,2.17-15.41,2.97-23.17ZM524.35,658.92c2.52-1.03,5.19-1.73,7.9-2.02,5.93-.65,10.21-5.98,9.57-11.91-.65-5.93-6.02-10.23-11.91-9.57-3.42.37-6.78,1.13-10.04,2.18-3.32-26.6,1.75-54.42,7.08-83.53,6.24-34.06,12.69-69.28,5.13-104.05-.47-2.18-1.57-4.06-3.07-5.5l24.65-55.17c6.61,9.83,15.39,17.84,23.98,25.61,10.04,9.09,18.98,17.21,23.07,26.81-.83-.04-1.67,0-2.53.16-5.86,1.14-9.68,6.81-8.55,12.66,1.53,7.87,2.22,15.9,2.15,23.94-2.62,3.52-2.8,8.17-.67,11.83-1.68,16.23-6.49,32.17-14.14,46.53-5.76-12.15-13.31-23.44-22.69-33.29-4.12-4.33-10.96-4.49-15.27-.38-4.32,4.11-4.49,10.95-.38,15.27,37.23,39.12,40.36,107.94,6.85,150.29-2.22,2.8-2.79,6.36-1.92,9.56-7.46,11.39-14.56,23.02-21.29,34.88-4.44-14.42-9.51-28.67-15.14-42.69.56-.12,1.09-.32,1.62-.53,1.5.77,3.19,1.19,4.92,1.19,1.05,0,2.12-.16,3.18-.48,5.13-1.58,8.2-6.64,7.49-11.79ZM454.24,409.03c2.81,25.08,13.72,50.03,25.9,75.3,1.32,2.74,3.73,4.57,6.45,5.29-2.32,4.32-4.82,8.2-7.62,11.08-1.25-6.69-2.82-13.36-4.87-20.01-1.77-5.7-7.8-8.9-13.51-7.13-5.7,1.76-8.89,7.81-7.13,13.51,16.33,52.79,2.11,110.17-12.54,165.91-.32-1.74-.6-3.48-.86-5.24,1.42-1.21,2.58-2.76,3.27-4.64,1.94-5.28-.39-11.03-5.19-13.63-.28-3.85-.51-7.68-.74-11.41l-1.65-27.72c4.01-2.92,5.73-8.25,3.82-13.08l-5.41-13.7-2.24-37.68c19.66-36.37,23.35-77.83,22.33-116.86ZM435.19,913.09c-5.37-9.66-15.39-17.41-24.11-21.81-2.26-1.14-4.54-2.24-6.83-3.33,14.1-3.51,27.14-11.43,36.56-22.47,2.39,4.24,5,8.39,7.89,12.44.82,1.15,1.86,2.02,2.98,2.74-4.83,11.47-10.2,22.44-16.48,32.43ZM488.29,736.7c-9.33-5.8-11.38-9.26-11.79-10.21,2.51-5.26.38-11.59-4.84-14.26-5.31-2.71-11.82-.6-14.53,4.71-4.57,8.95-4.85,22.82,19.77,38.11,2.99,1.86,5.37,5.33,6.2,7.46-3.89,3.15-5.18,8.69-2.81,13.32,1.7,3.32,4.9,5.29,8.34,5.7-4.8,11.38-9.33,22.91-13.52,34.62-2.31,6.45-4.57,13.01-6.84,19.61-2.44,7.09-4.9,14.22-7.45,21.29-4.69-7.77-9.21-17.25-12.69-29.13.1-2.21-.46-4.42-1.7-6.34-6.52-26.91-7.65-65.21,4.97-121.76,3.23-3.06,4.3-7.74,2.8-11.88.48-1.96.94-3.89,1.46-5.89,1.58-6.15,3.21-12.33,4.84-18.54,12.19-46.29,24.63-93.78,21.31-140.64,15.33-7.04,23.23-24.67,28.48-36.41l3.56-7.97c.76,23.1-3.58,46.88-8.12,71.68-5.98,32.67-12.14,66.32-5.82,99.37-.39.38-.75.8-1.13,1.2-3-6.71-6.11-13.38-9.38-19.95-2.65-5.34-9.13-7.52-14.48-4.86-5.34,2.65-7.52,9.14-4.86,14.48,14.63,29.44,26.55,60.43,35.42,92.1.29,1.02.73,1.95,1.27,2.8-.69,1.52-1.08,3.21-.98,4.99.05.99.28,1.91.57,2.81-1.46,2.92-2.9,5.86-4.32,8.8-3.16-6.38-8.4-11.92-13.7-15.22ZM1053.39,621.97c1.49,1.2,3.21,1.94,4.97,2.23,1.11,2.78,2.33,5.52,3.69,8.2,4.46,8.76,10.04,16.53,16.15,23.9-8.23-1.51-16.5-2.84-24.86-3.82-5.45-.64-11.62-1.23-18.25-1.56-.56-3.54-2.84-6.73-6.38-8.25-19.08-8.2-37.84-17.53-56.02-27.75,17.09-6.7,33.78-15.15,49.84-25.16,8.89,12,19.21,22.85,30.86,32.21ZM901.02,693.54c-16.32-14.34-22.22-39.76-14.21-59.92,19.73-.92,39.52-4.2,59.03-9.69.62.62,1.3,1.2,2.09,1.68,16.4,9.81,33.39,18.85,50.69,27.1-7.82,1.3-15.71,3.31-23.37,6.33-16,6.3-29.58,16.12-42.72,25.62l-28.45,20.58c1.42-4.03.36-8.7-3.05-11.69ZM1051.75,578.85c-.34,3.97-.47,7.95-.34,11.93-3.89-4.13-7.49-8.52-10.91-13.06,3.69-2.67,7.34-5.43,10.95-8.27-.36.84-.65,1.72-.8,2.67-.37,2.4.07,4.72,1.1,6.73ZM832.61,587.39c1.74,1.18,3.81,1.88,6.02,1.88.4,0,.8-.02,1.2-.07,5.93-.65,10.21-5.99,9.55-11.92-.22-1.97-.51-3.94-.81-5.9l27.6-27.67c.78-.15,1.55-.37,2.31-.7,3.4-1.49,5.64-4.52,6.28-7.91l7.76-7.78c6.63-1.18,13.93-.96,21.55-.72,8.44.26,17.13.53,25.98-.98.09.05.15.13.24.18,7.41,4.43,12.9,12.48,14.32,21,.91,5.46,5.64,9.32,10.99,9.32.61,0,1.23-.05,1.85-.15,6.08-1.01,10.18-6.76,9.17-12.84-1.63-9.79-6.19-18.96-12.75-26.34,9.45-5.36,18-12.26,26.36-19.05,15.41-12.5,28.71-23.31,44.37-22.26.14,0,.28-.02.42-.02,2.03,22.71,7.44,45.29,16.02,66.25-2.17,1.91-4.35,3.81-6.57,5.65-36.07,30.03-77.41,50.46-119.59,59.58,7.7-18.02,13.57-36.82,17.45-56.03,1.22-6.04-2.69-11.92-8.73-13.14-6.05-1.24-11.93,2.69-13.14,8.73-4.25,21.05-11.07,41.57-20.25,60.98-.54,1.15-.82,2.35-.96,3.55-5.84.61-11.68,1.06-17.5,1.23-8.98.25-18.09.05-27.74-.16-15.7-.35-31.63-.69-47.04,1.01l25.65-25.71ZM699.79,720.56c1.54.84,3.28,1.34,5.12,1.34.4,0,.8-.02,1.2-.07,27.87-3.08,56.28-6.22,84.61-7.02-21.04,12.72-42.75,24.52-65.59,32.94-17.3,6.38-40.33,12.47-65.04,12.6l39.69-39.79ZM588.55,825.81c18.32-13.62,35-29.18,51.06-45.01,6.65.81,13.24,1.19,19.71,1.19,28.07,0,53.93-6.83,73.29-13.96,35.28-13.01,67.09-32.95,97.82-52.53,8.92.61,17.8,1.55,26.62,2.94,5.87.93,11.42-3.1,12.34-9,.93-5.89-3.1-11.42-9-12.34-9.79-1.54-19.6-2.58-29.4-3.23-1.58-.45-3.25-.57-4.9-.26-34.99-1.86-69.91,1.11-104.18,4.77l54.56-54.7c21.65-11.19,48.65-10.63,77.06-9.98,3.45.08,6.96.13,10.47.19-7.05,26.92,1.66,57.35,22.77,75.89,2.05,1.8,4.59,2.68,7.12,2.68.08,0,.15-.02.22-.02l-58.18,42.09c-1.93,1.4-3.23,3.32-3.91,5.43-18.94,1.42-37.3,5.1-54.67,11.14-15.07,5.24-29.39,12.16-43.24,18.85-8.57,4.14-17.43,8.42-26.2,12.16-37.43,15.95-78.44,23.88-119.37,23.71ZM826.46,837.17c-19.37,2.57-39.33,5.18-58.73,4.22,13.5-20.53,40.77-31.39,64.64-25.35,5.77,1.46,11.65-2.03,13.12-7.82,1.47-5.78-2.03-11.66-7.82-13.12-34.16-8.65-71.97,7.08-89.92,37.42-1.15,1.95-1.62,4.12-1.47,6.22-12.89-2.63-25.44-7.06-37.11-13.11,2.5-.99,5.03-1.94,7.5-2.99,9.26-3.95,18.36-8.34,27.16-12.6,13.89-6.71,27.01-13.05,40.87-17.87,28.05-9.76,59.09-12.69,91-9.18,1.52,15.78,5.35,31.38,11.27,46.16l-60.5,8.03ZM1066.56,849.64c-16.9-13.11-34.38-26.68-52.58-38.54-18.53-12.09-37.76-22.11-57.28-30.03,6.41-3.74,12.41-8.16,17.86-13.2.53.09,1.06.18,1.62.19l35.61.48c8.01,22.07,24.25,41.34,44.79,52.66,1.65.91,3.44,1.34,5.2,1.34,3.81,0,7.5-2.02,9.47-5.59,2.88-5.22.98-11.79-4.25-14.67-13.59-7.49-24.77-19.45-31.65-33.42l64.98.87c1.35.02,2.8.02,4.2.04-2.87,20.56-3.28,41.3-1.3,61.81-5.44.61-11.04-.02-16.14-1.98-5.58-2.13-11.82.65-13.96,6.21-2.14,5.57.65,11.82,6.21,13.96,6.37,2.44,13.23,3.68,20.07,3.68,2.27,0,4.54-.16,6.79-.43,1.93,10.69,4.5,21.28,7.74,31.69-15.93-10.64-31.47-22.7-47.39-35.06ZM1100.63,748.11l-76.6-1.02c-2.17-1.02-4.67-1.36-7.18-.72-.58.15-1.12.37-1.65.6l-23.18-.31c3.89-6.31,7.11-13.04,9.44-20.1,1.87-5.67-1.22-11.77-6.88-13.64-5.65-1.87-11.77,1.21-13.64,6.88-8.12,24.66-29.55,44.43-54.76,50.65-20.27-5.87-40.62-9.46-60.61-10.69l79.64-57.61c12.05-8.71,24.51-17.73,37.98-23.03,17.72-6.98,38.6-8.57,67.67-5.18,33.57,3.92,66.11,12.46,97.13,25.34-.12.05-.25.07-.37.13-5.42,2.5-7.78,8.92-5.28,14.33,4.02,8.7,7.45,17.66,10.34,26.79-15.26,8.03-34.79,7.81-52.04,7.58Z"/>
  <path class="cls-2" d="M748.14,7.5h0c1.04,0,2.06.28,2.96.82,1.33.79,2.27,2.06,2.65,3.56.38,1.5.15,3.06-.64,4.39-20.48,34.39-22.64,76.86-22.06,113.87l.17,10.51,8.05-6.76c13.01-10.93,27.1-20.11,41.88-27.28.86-.41,1.76-.62,2.7-.62,2.38,0,4.51,1.33,5.55,3.47.72,1.48.82,3.15.28,4.7-.54,1.55-1.65,2.81-3.13,3.52-5.16,2.51-10.31,5.33-15.74,8.64l-13.61,8.29,15.91.97c8.8.53,17.59,1.74,26.14,3.58,1.61.35,2.99,1.3,3.88,2.68.89,1.38,1.19,3.03.85,4.63-.61,2.82-3.13,4.87-6.01,4.87-.43,0-.87-.05-1.31-.14-11.19-2.41-22.66-3.63-34.08-3.63-5.31,0-10.69.27-15.99.79-.13.01-.27.02-.42.02-.42,0-.9-.06-1.45-.18l-2.54-.55-1.91,1.77c-1.96,1.82-3.91,3.7-5.95,5.76l-.76.76-.38,1.01c-.13.35-.28.67-.46.95l-.78,1.29.06,1.5.08,1.98.06,1.47c.52,12.82,1.06,26.08,1.17,39.09.09,11.21-.2,22.84-.9,35.56l-.42,7.75,7.23-2.82c3.93-1.53,7.9-2.56,12.3-3.66,5.06-1.25,9.84-2.44,13.87-4.43,8.92-4.4,15.07-14.41,14.96-24.36-.04-3.39,2.68-6.17,6.07-6.22h.09c3.35,0,6.12,2.73,6.15,6.09.16,14.73-8.61,29.02-21.83,35.54-5.23,2.57-10.88,3.98-16.35,5.33-8.76,2.17-16.32,4.05-19.86,9.89-.48.78-1.17,1.46-2.07,2.01l-2.13,1.3-.24,2.48c-2.63,26.72-6.81,54.71-13.16,88.09l-2.07,10.88,9.53-5.65c6.53-3.87,13.38-6.55,20.36-7.97.41-.08.82-.12,1.23-.12,2.91,0,5.45,2.07,6.03,4.93.33,1.61.01,3.25-.9,4.62-.91,1.37-2.3,2.31-3.91,2.64-12.91,2.63-24.78,10.23-32.57,20.84-.56.77-1.29,1.38-2.17,1.83l-2.14,1.09-.49,2.35c-2.64,12.66-5.37,25.38-8.18,38.38-1.82,8.45-3.89,18.02-6.07,27.41l-1.78,7.66,7.69-1.63c33.69-7.16,62.31-34.89,69.59-67.44.62-2.79,3.16-4.81,6.02-4.81.45,0,.9.05,1.33.14,1.61.36,2.98,1.32,3.86,2.71.88,1.39,1.17,3.04.81,4.64-.53,2.37-1.2,4.84-2.06,7.55l-7.53,23.93c-1.19.38-2.37.78-3.54,1.2l-1.49.53-.91,1.3c-17.28,24.57-44.78,40.95-73.55,43.83l-3.42.34-.91,3.31c-5.99,21.82-12.45,39.28-20.32,54.96-15,29.88-36.47,55.37-57.25,80.05-6.7,7.96-13.63,16.19-20.24,24.45-21.22,26.53-40.45,55.13-57.17,85.01l-4.75,8.49,9.67-1.08c22.09-2.46,37.15-7.58,48.82-16.6,12.75-9.85,20.92-24.1,29.59-39.2,2.29-3.99,4.65-8.11,7.12-12.15,15.78-25.84,33.85-40.09,53.69-42.35.22-.02.44-.04.66-.04,2.97,0,5.46,2.21,5.79,5.14.18,1.54-.26,3.06-1.22,4.27-.96,1.21-2.34,1.98-3.88,2.15-16.12,1.84-31.31,14.24-45.13,36.88-2.34,3.83-4.62,7.8-6.82,11.64l-.14.24c-8.84,15.41-17.98,31.34-32.56,42.61-19.67,15.2-45.88,18.75-68.92,20.23l-2.85.18-1.29,2.55c-10.25,20.22-19.54,41.29-27.63,62.62l-1.87,4.94,5.04,1.6c17.34,5.49,35.55,9.42,54.12,11.68l1.67.2,1.45-.85c4.34-2.53,8.7-5.27,12.95-8.14l1.66-1.12.43-1.96c2.89-13.23,3.04-27.03.45-39.91-.63-3.14,1.41-6.2,4.55-6.84.39-.08.78-.12,1.16-.12,2.74,0,5.12,1.96,5.66,4.66,1.5,7.44,2.18,15.22,2.04,23.14l-.19,10.9,8.39-6.97c7.82-6.49,16.04-13.87,25.13-22.54l5.68-5.41-7.3-2.86c-2.84-1.11-4.33-4.13-3.46-7.01.73-2.44,3.01-4.15,5.55-4.15.56,0,1.12.08,1.67.25,3.46,1.03,7.11,1.93,11.48,2.8l2.62.53,1.89-1.89c2.53-2.53,5.06-5.06,7.57-7.58l92.51-92.75,1.63-1.64-.19-2.31c-.06-.76,0-1.44.17-2.07,5.52-19.32,2.56-41.1-7.93-58.24-1.67-2.73-.81-6.31,1.91-7.98.92-.56,1.97-.86,3.03-.86,2.04,0,3.89,1.04,4.96,2.77,7.25,11.86,11.48,25.75,12.21,40.17l.46,9.01,7.4-5.16c2.1-1.47,4.23-2.82,6.33-4.02l.58-.33.47-.48,26.27-26.34,2.02-2.02-.72-2.76c-.05-.18-.1-.36-.16-.53h0c-3.93-20.81-19-39.66-38.42-48.08-2.32-1.01-4.69-1.88-6.98-2.72l-.42-.15c-5.61-2.06-11.96-4.39-17.45-8.33-15.19-10.89-19.76-29.9-23.13-48.43-.28-1.53.06-3.07.94-4.34.88-1.27,2.21-2.13,3.75-2.41.35-.07.71-.1,1.07-.1,2.78,0,5.16,2.01,5.66,4.77,3.07,16.87,6.8,32.71,18.48,41.08,4.19,3.01,9.29,4.88,14.69,6.87l.09.03c2.59.95,5.28,1.94,7.91,3.08,1.54.67,3.21,1.48,5.09,2.47l5.98,3.15,1.26-6.64c2.2-11.58,5.21-22.96,8.95-33.83l1.36-3.95-3.65-2.04-28.35-15.86c-2.79-1.56-3.79-5.11-2.23-7.9,1.03-1.83,2.97-2.97,5.08-2.97,1,0,1.95.25,2.82.74l25.8,14.44,4.78,2.67,2.23-5c3.22-7.22,6.72-14.19,10.4-20.71,1.03-1.82,2.97-2.95,5.07-2.95,1,0,1.95.25,2.84.75,1.35.76,2.32,2,2.74,3.5s.22,3.06-.54,4.41c-13.44,23.81-22.51,49.56-26.95,76.54-.12.72-.39,1.43-.82,2.11l-2.15,3.44,2.92,2.81c8.56,8.25,15.23,18.47,19.29,29.54l2.7,7.36,5.54-5.55,18.13-18.18,1.97-1.98-.65-2.71c-2.92-12.23-7.44-23.82-13.44-34.46-.76-1.35-.95-2.92-.54-4.41.42-1.49,1.39-2.73,2.74-3.5.88-.5,1.84-.75,2.84-.75,2.1,0,4.04,1.13,5.06,2.95,4.46,7.91,8.22,16.45,11.18,25.39l2.55,7.7,5.73-5.75,17.84-17.88,2.41-2.41-1.37-3.12-28.28-64.57c-.62-1.42-.65-3-.09-4.44.56-1.44,1.66-2.58,3.08-3.2.74-.33,1.53-.49,2.32-.49,2.3,0,4.39,1.36,5.32,3.48l23.74,54.2,2.7,6.16,5.12-4.36c.61-.52,1.26-.9,1.93-1.14.87-.31,1.78-.57,2.75-.84l.22-.06,1.25-.36.92-.92,26.32-26.39.81-.81.8-.8,2.76-2.77-2.02-3.35c-21.2-35.13-49.83-66.18-82.78-89.8-2.76-1.98-3.39-5.83-1.42-8.59,1.15-1.61,3.03-2.57,5.01-2.57,1.29,0,2.53.4,3.58,1.15,9.69,6.95,19.21,14.66,28.28,22.93l7.86,7.16.5-10.63c.79-16.81-.19-33.64-2.9-50.01-.27-1.62.11-3.25,1.07-4.59.96-1.34,2.38-2.22,4.01-2.49.33-.06.67-.08,1-.08,2.97,0,5.58,2.22,6.06,5.16,3.91,23.63,4.39,47.77,1.42,71.74l-.28,2.29,1.56,1.7c12.93,14.11,24.58,29.37,34.64,45.36l3.43,5.46,4.43-4.69c3.2-3.38,5.81-6.22,8.22-8.93l3.3-3.71-3.69-3.32c-1.14-1.03-1.85-2.44-2-3.97-.16-1.64.32-3.24,1.37-4.51,1.04-1.27,2.52-2.06,4.16-2.22,3.17-.31,6.5-.69,10.18-1.17l2.19-.28,1.27-1.8c1.43-2.03,2.91-4.27,4.55-6.85l4.02-6.34.08.17.64-1.3,1.12-1.76-.27.04,3.28-6.69c4.26-8.68,7.95-18.03,10.98-27.8l.16-.52.28.62,1.73-7.12,2.13-6.87-.55.38.13-.52c.2-.81.38-1.62.56-2.43l.21-.9.55-2.42-1.59-1.9c-1.16-1.38-1.66-3.09-1.4-4.81.28-1.96,1.47-3.62,3.25-4.56l2.2-1.15.41-2.45c3.93-23.45,5.54-48.25,6.96-72.42l11.58.68c-.49,8.31-.97,16.06-1.54,23.97l-.39,5.38,5.4-.02c27.94-.11,56.21-8.06,79.61-22.38.97-.59,2.07-.91,3.2-.91,2.17,0,4.13,1.1,5.26,2.95.86,1.4,1.12,3.05.74,4.65-.38,1.6-1.37,2.95-2.77,3.81-8.43,5.16-17.77,9.68-27.75,13.44l-8.34,3.14.02.02-9.26,2.37c-13.77,3.53-27.58,5.32-41.03,5.32-.32,0-.63,0-.95,0h-.64s-4.55-.05-4.55-.05l-.47,4.53c-.84,8.11-1.8,15.6-2.94,22.92l-1.01,6.5,6.53-.77c20.37-2.39,39.72-14.22,50.5-30.87l5.55-8.58,5.27,4.11c2.4,1.88,3.08,5.26,1.57,7.88-13.52,23.54-40.2,39.31-67.96,40.18l-3.86.12-.86,3.76c-4.77,20.9-11.38,38.9-20.2,55.05l-5.36,9.82,10.89-2.55c31.09-7.29,56.67-19.42,76.05-36.06,17.87-15.34,31.69-35.31,45.06-54.62,1.15-1.66,3.05-2.65,5.07-2.65,1.25,0,2.46.38,3.49,1.09,2.79,1.93,3.49,5.78,1.56,8.57-13.81,19.95-28.09,40.58-47.16,56.95-25.42,21.83-60.14,36.28-103.2,42.97l-1.96.3-1.22,1.57c-6.97,8.96-15.03,18.04-26.13,29.42l-1.04,1.07-.29,1.46c-.36,1.83-1.42,3.33-2.99,4.2-.46.26-1.02.45-1.75.61l-1.46.31-1.05,1.06-1.34,1.35-1.88,1.89-8.65,8.68-8.15,8.17,11.53.36c2.96.09,5.85.18,8.66.18,6.61,0,11.56-.47,16.05-1.52,14.25-3.34,26.4-13.21,39.31-23.68,15.85-12.86,32.23-26.16,53.11-26.16.62,0,1.25.01,1.86.03l4,.15,1.02-3.87c.71-2.7,3.14-4.59,5.91-4.59,3.39,0,6.15,2.75,6.16,6.14.06,23.75,4.38,48.25,12.49,70.84l2.69,7.49,5.58-5.67c32.92-33.43,60.62-75.16,82.33-124.05.93-2.1,3.01-3.45,5.3-3.45.81,0,1.6.17,2.35.51,1.42.63,2.5,1.77,3.06,3.22.56,1.45.52,3.02-.11,4.44-24.88,56.04-57.44,102.86-96.77,139.16l-4.87,4.49,5.66,3.45c2.28,1.39,3.32,4.13,2.53,6.66l-.02.07-.02.07-.04.13v.02s-1.54,5.46-1.54,5.46l5.73.75c24.28,3.16,48.99,4.76,73.43,4.76,13.9,0,27.94-.52,41.74-1.54.14,0,.27-.01.41-.01,3.31,0,5.98,2.45,6.23,5.69.25,3.39-2.3,6.35-5.68,6.6-14.24,1.06-28.68,1.59-42.91,1.59-25.06,0-50.43-1.66-75.38-4.93l-5.59-.73-.06,5.64c-.14,13.32,2.94,26.54,8.9,38.24,6.49,12.75,16.2,23.67,26.41,34.66.98,1.05,1.52,2.45,1.52,3.94v3.82s3.69,1,3.69,1c25.68,6.98,50.53,16.59,73.87,28.57,2.85,1.46,3.97,4.96,2.51,7.81-1,1.94-2.98,3.15-5.17,3.15-.92,0-1.81-.22-2.64-.64-4.47-2.29-8.86-4.37-12.57-6.1l-3.74-1.75.2-.09-3.52-1.46-5.25-2.45.15.33-2.42-1.01c-31.54-13.1-64.67-21.74-98.47-25.69-10.09-1.18-19.01-1.75-27.28-1.75-16.43,0-30.44,2.37-42.81,7.24-14.04,5.53-26.76,14.73-39.08,23.63l-79.64,57.61-11.31,8.18,13.93.86c19.61,1.21,39.64,4.74,59.53,10.5l1.29.37,1.3-.32c26.81-6.61,49.7-27.79,58.31-53.94.79-2.39,3-3.99,5.51-3.99.61,0,1.22.1,1.82.3,3.04,1,4.7,4.29,3.7,7.33-2.12,6.45-5.13,12.86-8.94,19.04l-4.63,7.51,8.82.12,23.18.31h1.07s.98-.41.98-.41c.33-.14.66-.28.91-.34.44-.11.89-.17,1.34-.17.84,0,1.67.19,2.48.57l.97.46h1.08s76.6,1.04,76.6,1.04c2.7.04,5.76.08,8.86.08,15.54,0,31.83-1,45.58-8.23l3.7-1.95-1.27-3.99c-3.02-9.51-6.57-18.72-10.57-27.37-.65-1.41-.71-2.98-.18-4.43.51-1.38,1.5-2.5,2.81-3.17.12-.04.26-.09.41-.15l5.16-2.17,2.73,5.97c7.31,15.99,12.92,32.92,16.69,50.32l.93,4.29,4.37-.36c.2-.02.4-.04.6-.07h.02s55.5,0,55.5,0c3.2,0,5.8,2.6,5.8,5.8s-2.6,5.8-5.8,5.8h-58.51l.72,5.64c.58,4.52,1.01,8.66,1.31,12.65l.26,3.44,3.31.98c20.04,5.93,38.71,15.1,55.51,27.27,1.25.91,2.08,2.25,2.33,3.78.25,1.53-.12,3.06-1.03,4.32-1.1,1.52-2.82,2.4-4.71,2.4-1.23,0-2.4-.38-3.39-1.1-13.71-9.93-28.84-17.77-44.97-23.3l-6.52-2.24-.1,6.89c-.04,2.48-.1,4.7-.19,6.79-.26,6.11-1.34,11.51-3.2,16.07l-1.09,2.68,1.78,2.28.11.14c.14.18.33.42.38.51,10.55,18.38,25.2,34.69,42.35,47.17,2.59,1.88,3.16,5.52,1.28,8.11-1.1,1.52-2.82,2.39-4.7,2.39-1.23,0-2.41-.38-3.41-1.11-17.17-12.49-32.16-28.79-43.36-47.14l-2.06-3.38-3.76,1.24-.07.02c-.44.14-.85.28-1.2.37l-2.71.67-.85,2.66c-.43,1.35-1.35,2.49-2.58,3.22-1.17.69-2.48,1.06-3.8,1.06-2.52,0-4.81-1.26-6.29-3.47-2.71-4.03-1.92-9.78,1.74-12.56,3.05-2.33,6.5-2.47,9-2.57h.25c.49-.02,1.1-.04,1.78-.14,5.96-.86,8.48-10.62,8.83-18.71.85-19.73-.89-39.83-5.18-59.73l-1.29-5.99-5.61,2.47c-8.5,3.74-18.37,6.02-30.18,6.96l-3.94.31-.6,3.91c-6.66,43.06-1.81,87.24,14.01,127.74.43,1.09.51,2.28.24,3.43l-.89,3.76,3.42,1.81c13.66,7.21,26.71,12.51,39.9,16.19,3.27.91,5.19,4.32,4.27,7.59-.74,2.65-3.18,4.51-5.92,4.51-.56,0-1.12-.08-1.67-.23-36.91-10.32-68.24-31.44-96.59-52.74l-8.72-6.55.72,10.88c.81,12.12,5.43,23.53,13.02,32.12,1.03,1.16,1.54,2.65,1.45,4.2-.09,1.55-.79,2.96-1.95,3.99-1.06.94-2.43,1.46-3.84,1.46-1.67,0-3.25-.71-4.35-1.96-12.93-14.62-18.69-35.7-15.05-55.01l.57-3.01-2.42-1.87-.9-.7-.9-.7c-8.92-6.92-17.65-13.67-26.46-20.21l-6.53-4.84-1.38,8.01c-.03.18-.05.36-.07.57-4.53,19.87-.15,41.6,11.72,58.17.9,1.26,1.26,2.8,1.01,4.32-.25,1.53-1.08,2.87-2.34,3.77-.99.71-2.16,1.09-3.37,1.09-1.9,0-3.62-.88-4.73-2.42-13.84-19.29-18.9-44.62-13.55-67.76.37-1.6,1.4-2.93,2.9-3.75l7.13-3.89-6.68-4.61-1.21-.84c-2.56-1.77-5.2-3.6-7.85-5.32-33.12-21.6-69.66-36.84-105.66-44.07l-6.88-1.38.94,6.96c1.91,14.05,5.86,27.89,11.75,41.12l1.52,3.42,3.71-.49,20.71-2.75c.25-.03.51-.05.76-.05,2.9,0,5.37,2.17,5.75,5.04.2,1.53-.2,3.06-1.14,4.29-.94,1.23-2.31,2.02-3.85,2.22l-12.52,1.66-7.86,1.04,4.32,6.64c3.02,4.64,5.69,8.38,8.39,11.75.97,1.21,1.41,2.73,1.24,4.27-.17,1.54-.93,2.92-2.14,3.89-1.31,1.05-2.69,1.27-3.62,1.27-1.78,0-3.43-.79-4.53-2.17-5.21-6.5-10-13.59-14.25-21.09l-1.66-2.94-3.34.44-67.51,8.97c-17.07,2.27-34.73,4.61-52.45,4.61-5.43,0-10.49-.21-15.46-.65-23.24-2.03-46.17-9.33-66.3-21.12-1.43-.84-2.39-2.23-2.72-3.92l-1.06-5.48-5.33,1.65c-17.03,5.28-34.54,9.15-52.02,11.5l-11.08,1.49,8.49,7.27c2.91,2.49,5.75,5.06,8.66,7.71l3.05,2.76c13.47,12.15,25.03,18.06,35.34,18.06,2.53,0,4.99-.37,7.31-1.11.57-.18,1.17-.28,1.76-.28,2.53,0,4.75,1.63,5.52,4.05.47,1.48.33,3.05-.38,4.42-.71,1.38-1.92,2.39-3.4,2.86-3.48,1.11-7.11,1.67-10.77,1.67-13.14,0-27.66-7.09-43.14-21.05l-3.1-2.81c-10.56-9.61-21.48-19.55-34.11-22.17l-.55-.11h-.56c-2.17.05-4.36.08-6.53.08-10.98,0-22.07-.56-32.96-1.68l-1.52-.16-1.35.72c-.42.23-.84.45-1.26.68-.8.43-1.55.84-2.31,1.23-.83.42-1.72.64-2.64.64-2.04,0-3.95-1.13-5-2.96l-1.19-2.08-2.36-.38c-15.72-2.5-30.94-6.07-45.27-10.63l-.35-.11-4.67-1.53-1.61,4.64c-.44,1.28-.89,2.55-1.34,3.82-.68,1.95-1.37,3.9-2.05,5.88-15.5,45.03-31.53,91.59-69.01,118.31-.99.7-2.15,1.08-3.35,1.08-1.91,0-3.63-.89-4.74-2.43-1.86-2.6-1.25-6.23,1.36-8.09,3.74-2.67,7.38-5.7,11.12-9.27l2.18-2.08-.82-2.9c-.44-1.57-.24-3.18.57-4.54,1.31-2.19,1.57-4.41.82-7.01-2.07-7.12-10.78-14.24-18.5-18.14-18.94-9.57-39.01-16.95-59.64-21.94-4.26-1.03-8.54-1.96-13.29-2.99-14.37-3.11-29.24-6.33-42.91-13.06-5.55-2.73-10.64-5.91-15.81-9.19l-4.6-2.93-2.52,4.84c-2.89,5.56-5.52,11.43-7.83,17.45l-.91,2.38,1.39,2.14c.62.95.95,2.04.95,3.14,0,2.42-1.47,4.54-3.76,5.41l-2.38.9-.67,2.45c-8.3,30.39-8.46,61.95-.45,91.27.84,3.09-.98,6.28-4.07,7.13-.5.14-1.02.21-1.53.21-2.6,0-4.9-1.76-5.59-4.27-7.95-29.1-8.34-60.61-1.14-91.1l1.45-6.16h-6.33s-72.18.14-72.18.14c-26.82.05-34.85,8.14-36.87,14.91-.73,2.45-3.01,4.15-5.56,4.15-.56,0-1.11-.08-1.66-.24-1.49-.44-2.71-1.44-3.45-2.8-.74-1.36-.9-2.93-.46-4.41,3.01-10.11,10.71-16.76,23.55-20.33l10.96-3.04-9.66-6.02c-.48-.3-.95-.61-1.43-.93-.39-.26-.78-.51-1.17-.77l-2.94-1.88-2.78,2.11c-1.08.82-2.42,1.27-3.75,1.27-.7,0-1.39-.12-2.05-.36-7.22-2.6-14.94-3.93-22.93-3.93-12.61,0-25.26,3.44-35.61,9.67-.96.58-2.06.88-3.18.88-2.18,0-4.15-1.11-5.28-2.98-1.75-2.91-.81-6.7,2.1-8.45,12.47-7.51,26.94-11.48,41.83-11.48h.13s12.9,0,12.9,0l-9.53-8.69c-3.64-3.32-6.74-6.31-9.5-9.14-1.08-1.11-1.67-2.57-1.65-4.12.02-1.55.64-3,1.76-4.08,1.09-1.06,2.52-1.65,4.04-1.65,1.58,0,3.05.62,4.16,1.76,19.78,20.3,43.99,36.94,70.03,48.13.15.09.31.18.47.26l1.05.52h1.18s63.94-.12,63.94-.12h3.49s1.2-3.29,1.2-3.29c2.79-7.65,6.1-15.14,9.85-22.26l2.44-4.64-4.76-2.22c-10.83-5.05-23.04-7.71-35.31-7.71-8.89,0-17.62,1.36-25.95,4.05l-3.66,1.18.2,3.84c.08,1.45-.39,2.87-1.31,3.99-1.11,1.35-2.75,2.13-4.5,2.13-.94,0-2.34-.23-3.67-1.32l-6.22-5.09c-1.51-1.23-2.29-3.13-2.1-5.07.19-1.94,1.34-3.64,3.07-4.55,13.34-7.03,28.65-10.74,44.27-10.74,14.69,0,29.16,3.31,41.87,9.57,2.77,1.36,5.59,2.92,8.89,4.9l.03.02.03.02s.06.03.08.05c.03.02.06.04.09.06l.06.04.07.04c2.69,1.62,5.34,3.3,8.05,5.02l.06.04c5.47,3.48,10.64,6.77,16.15,9.49,12.39,6.1,25.9,9.03,40.24,12.13l.41.09c4.33.94,8.82,1.91,13.16,2.96,8.1,1.95,16.25,4.31,24.23,7l4.59,1.55,1.69-4.54c.84-2.27,3.01-3.79,5.39-3.79.21,0,.42.01.63.03,1.65.17,3.35.26,5.03.26,9.05,0,18.13-2.49,26.25-7.21,8.21-4.77,14.85-11.48,19.2-19.4.15-.27.35-.57.63-.89l1.8-2.19-.95-2.67c-1.09-3.05-2.1-6.21-3.09-9.66l-.38-1.33-1.01-.94c-11.92-11.18-24.86-22.59-38.73-30.26l-1.6-.89-1.79.36c-.43.09-.8.13-1.13.13-1.67,0-3.25-.72-4.35-1.96-.28-.32-.55-.65-.82-.98-.25-.31-.5-.62-.76-.92l-.87-1.02-1.26-.45c-6.28-2.25-12.27-3.5-18.32-3.82-1.06-.06-2.16-.08-3.27-.08-10.32,0-20.64,2.4-31.56,4.93-10.9,2.54-22.18,5.17-33.41,5.17-5.67,0-10.88-.65-15.94-1.99-5.26-1.39-10.01-3.49-13.96-5.36l-2.11-1-2.12.97c-.8.37-1.63.55-2.47.55-.56,0-1.12-.09-1.67-.26-1.47-.46-3.04-.69-4.67-.69-6.15,0-12.25,3.35-15.19,8.32-1.06,1.79-2.93,2.85-5.01,2.85-1.03,0-2.04-.28-2.94-.81-2.75-1.63-3.67-5.19-2.05-7.95,1.63-2.75,3.77-5.22,6.36-7.32l7.24-5.88-8.9-2.78c-17.88-5.58-36.43-8.41-55.16-8.41-12.99,0-25.96,1.38-38.53,4.11-.41.09-.82.13-1.23.13-2.71,0-5.09-1.92-5.67-4.58-.68-3.13,1.32-6.22,4.44-6.9,13.29-2.88,27.05-4.34,40.9-4.34,3.5,0,7.05.09,10.56.28l8.75.46-4.05-7.77c-3.22-6.17-5.65-13.42-7.45-22.17l-.93-4.52-4.58.56c-8.03.98-16.78,1.46-26.73,1.46-4.27,0-8.92-.09-14.22-.27l-2.39-.08-1.56,1.8c-.5.57-.95.97-1.41,1.26-16.34,9.94-29.18,26.05-35.24,44.18-.84,2.52-3.19,4.21-5.84,4.21-.66,0-1.32-.11-1.95-.32-3.22-1.08-4.96-4.57-3.89-7.79,4.41-13.19,12.07-25.65,22.14-36.02l7.99-8.23-11.47-.25c-.68-.01-1.35-.03-2.03-.05-1.39-.04-2.82-.08-4.24-.09-.5,0-1.01,0-1.5,0-34.18,0-59.22,6.89-76.57,21.06-1.4,1.15-2.89,1.39-3.88,1.39-1.86,0-3.6-.82-4.77-2.26-1.04-1.27-1.52-2.88-1.36-4.51.16-1.64.96-3.11,2.23-4.15,19.63-16.04,47.23-23.84,84.37-23.84.51,0,1.02,0,1.55,0,8.9.05,17.82.45,26.45.83,9.1.41,18.52.83,27.72.83s17.15-.43,24.5-1.3l4.96-.59-.59-4.96-.05-.4-.1-.82-.7-5.78c-4.49-36.22-19.23-46.32-27.62-49.12-1.56-.52-2.82-1.62-3.56-3.09-.73-1.47-.85-3.14-.33-4.7.84-2.52,3.18-4.21,5.83-4.21.66,0,1.31.11,1.96.32,8.29,2.76,15.35,8.07,21,15.78l3,4.1,4.05-3.07,11.13-8.43c1.08-.82,2.36-1.25,3.7-1.25,1.95,0,3.74.89,4.92,2.44.99,1.31,1.42,2.93,1.19,4.56-.23,1.63-1.07,3.07-2.38,4.07l-14.4,10.91-2.88,2.18,1.17,3.42c2.5,7.32,4.33,15.59,5.45,24.54l.71,5.9c2.31,19.57,4.7,39.8,17.9,51.91.68.63,1.21,1.44,1.57,2.42l.96,2.61,2.73.56c15.5,3.19,30.48,8.2,44.53,14.89,1.5.72,2.99,1.45,4.51,2.2l.05.02c5.71,2.81,11.1,5.46,16.78,6.97,4,1.06,8.21,1.57,12.87,1.57,4.99,0,10.44-.59,17.16-1.86l5.44-1.03-1.57-5.3c-5.11-17.25-16.49-33.18-32.04-44.85-15.58-11.69-34.04-18.12-51.99-18.12-.88,0-1.77.02-2.65.05h-.03s-.05,0-.05,0h-.15c-3.13,0-5.68-2.45-5.79-5.59-.06-1.55.49-3.03,1.55-4.16,1.06-1.13,2.49-1.79,4.04-1.85,1.09-.04,2.2-.06,3.3-.06,42.89,0,83.9,31.24,95.39,72.65l1.27,4.57,4.63-1.02c7.79-1.72,17.02-3.48,26.39-3.48,1.03,0,2.07.02,3.07.06l8.58.36-3.93-7.64c-6.17-12-10.51-24.95-12.88-38.5l-.42-2.38-2.12-1.15c-.94-.51-2.2-1.5-2.85-3.28-5.96-16.35-21.55-24.76-39.64-34.52-10.69-5.77-21.75-11.73-30.91-19.8-14.74-12.99-23.41-30.5-31.79-47.44l-.03-.06c-3.67-7.41-7.14-14.41-11.11-21.15-5-8.48-11.28-16.14-18.17-22.16l-3.02-2.63-3.23,2.37c-.75.55-1.99,1.21-3.61,1.21h-.03c-1.64,0-3.19-.66-4.35-1.82-1.16-1.17-1.79-2.72-1.78-4.37,0-.26,0-.53,0-.79,0-.22,0-.44,0-.66v-3.68s-3.49-1.11-3.49-1.11c-3.75-1.19-7.49-1.79-11.09-1.79-2.8,0-5.57.36-8.24,1.08-.53.14-1.06.21-1.6.21-2.77,0-5.21-1.88-5.92-4.57-.43-1.59-.21-3.25.61-4.67.82-1.42,2.15-2.44,3.74-2.87,3.45-.93,7.16-1.4,11.02-1.4,2.95,0,5.97.28,8.98.83l5.97,1.09-.08-6.07c-.05-3.84-.14-7.73-.23-11.49l-.05-2.24-.1-4.29-4.26-.55c-15.98-2.07-31.56-8.3-45.05-18.02-13.59-9.78-24.36-22.61-31.16-37.09-1.44-3.07-.12-6.75,2.96-8.19.83-.39,1.71-.59,2.61-.59,2.38,0,4.57,1.39,5.58,3.55,11.54,24.58,35.63,42.83,62.87,47.61l6.1,1.07-.24-6.19c-.47-12.18-.96-22.24-1.54-31.67-.21-3.39,2.38-6.31,5.76-6.52.13,0,.25-.01.38-.01,3.25,0,5.95,2.54,6.15,5.78,1.55,25.19,2.42,51.36,2.59,77.78l.02,2.77,2.35,1.45c11.56,7.14,21.71,18.03,30.16,32.37,4.22,7.15,7.96,14.7,11.58,22.02,8.22,16.59,15.98,32.27,28.89,43.65,8.12,7.15,18.07,12.52,28.62,18.21,10.3,5.56,20.96,11.3,29.57,18.83l7.26,6.34,1.01-9.58c.53-5.02,1.32-9.91,2.37-14.53.59-2.62,2.97-4.52,5.66-4.52.43,0,.86.05,1.28.14,3.12.71,5.08,3.82,4.38,6.94-7.72,34.16.49,71.3,21.97,99.35l.79,1.03,1.19.52c9.25,4,18.77,9.94,29.09,18.16l9.18,7.3-1.08-11.68c-.36-3.92-.63-7.96-.78-12l-.07-1.93-1.35-1.38c-.64-.65-1.44-1.75-1.63-3.29-2.11-16.39-12.94-31.93-27.6-39.58-1.37-.72-2.39-1.92-2.85-3.4-.46-1.48-.33-3.05.39-4.43.42-.8,1.06-1.5,1.92-2.08l3-2.02-.98-3.48-15.56-55.31c-.45-1.58-.25-3.24.56-4.68.8-1.43,2.12-2.47,3.7-2.91.55-.15,1.11-.23,1.67-.23,2.75,0,5.19,1.85,5.93,4.49l18.77,66.73c.17.61.23,1.29.17,2.08l-.16,2.42,1.8,1.63c1.92,1.74,3.79,3.65,5.54,5.68l7.42,8.58,1.33-11.27c1.78-15.09,4.62-30.92,8.68-48.39l.44-1.88-.94-1.68c-6.68-12.03-10.85-26.31-13.1-44.94l-.36-3.01-2.84-1.07c-19.68-7.39-42.33-16.52-62.07-31.42-3.55-2.68-7.1-5.68-10.53-8.9l-2.54-2.38-3.12,1.55c-.89.44-1.79.67-2.72.68h-.02s-.09,0-.09,0c-29.73-.55-58.98-8.81-84.61-23.87-1.42-.83-2.43-2.17-2.84-3.76-.41-1.59-.18-3.25.65-4.67,1.1-1.87,3.14-3.04,5.32-3.04,1.09,0,2.16.29,3.11.85,2.97,1.75,6.12,3.46,9.38,5.09l8.38,4.2-1.17-9.3c-2.2-17.38-2.1-36.13.31-58.98l.39-3.68-3.41-1.44c-25.56-10.83-48.94-27.22-67.6-47.37-1.12-1.21-1.7-2.78-1.63-4.42.06-1.64.76-3.16,1.97-4.28,1.14-1.06,2.62-1.64,4.18-1.64,1.74,0,3.34.7,4.52,1.98,16.03,17.32,35.89,31.78,57.42,41.83l6.11,2.85.96-6.67c.87-6.06,1.79-12.13,2.66-17.84,1.59-10.41,3-19.81,4.23-29.49l.46-3.6-3.29-1.55c-9.3-4.39-19.75-6.91-29.9-9.35-4.55-1.1-9.25-2.23-13.86-3.52-23.45-6.58-39.09-17.44-46.51-32.27-.74-1.47-.85-3.14-.34-4.7.52-1.56,1.62-2.82,3.09-3.56.87-.43,1.79-.65,2.75-.65,2.35,0,4.46,1.3,5.51,3.41,5.8,11.59,18.87,20.31,38.83,25.92,4.41,1.24,8.81,2.3,13.46,3.42,7.97,1.92,17,4.1,25.45,7.3l6.28,2.38.48-6.7c.76-10.61.91-20.37.46-29.83l-.11-2.25-1.75-1.41c-.84-.67-1.9-1.88-2.21-3.76-2.83-17-7.86-33.72-14.93-49.7l-.58-1.3-1.18-.8c-.1-.07-.21-.14-.32-.2-10.44-7.4-24.64-8.21-39.67-9.08-19.26-1.11-39.17-2.25-51.45-18.4-2.06-2.7-1.53-6.57,1.17-8.63,1.08-.82,2.37-1.26,3.72-1.26,1.94,0,3.73.89,4.91,2.43,8.85,11.64,25.13,12.58,42.36,13.57,6.19.36,13.2.76,20.01,1.8l11.04,1.69-6.09-9.36c-14.58-22.39-32.82-41.4-54.22-56.51-2.77-1.96-3.44-5.81-1.48-8.58,1.15-1.63,3.03-2.61,5.04-2.61,1.27,0,2.49.39,3.54,1.13,37.82,26.69,66.87,65.8,81.8,110.12l2.69,7.98,5.72-6.18c3.03-3.27,8.17-7.24,15.46-7.59.09,0,.18,0,.28,0,3.37,0,6.04,2.52,6.2,5.86.16,3.39-2.47,6.29-5.85,6.45-5.38.25-9.75,5.85-11.29,11.24-1.67,5.89-1.24,12.4-.79,19.28l.2,3.2c1.71,29.42-2.79,58.97-7.16,87.58-5.55,36.44-10.8,70.87-4.44,105.38.1.52.1,1.11,0,1.86l-.51,4.14,3.98,1.24c10.03,3.13,20.39,5.28,30.79,6.4l10.36,1.11-5.61-8.78c-8.48-13.27-13.28-27.7-13.89-41.74-.15-3.39,2.49-6.27,5.86-6.41.08,0,.17,0,.25,0,3.17,0,5.8,2.38,6.12,5.52l9.97-.6c-.52-30.3-.77-59.72-.74-87.45,0-3.39,2.77-6.15,6.17-6.15,3.39,0,6.15,2.77,6.15,6.17-.06,45,.56,90.96,1.84,136.6l.06,1.97,1.39,1.4c3.84,3.89,8.02,7.54,12.43,10.87,15.95,12.03,34.57,20.15,49.01,25.87l7.31,2.9-.48-7.85-.02-.28-.06-.96-3.03-50.96-.05-.8-.29-.74-70.55-178.54c-.6-1.53-.58-3.2.08-4.71.65-1.51,1.86-2.67,3.39-3.28.73-.29,1.49-.43,2.26-.43,2.55,0,4.8,1.53,5.73,3.9l45.58,115.35,10.52,26.63-.87-28.62c-.1-3.35,2.42-6.13,5.74-6.34.08,0,.17,0,.25,0,.93,0,1.88.23,2.81.68l5.34,2.6,1.65-5.71c3.76-12.95,6.18-26.81,7.41-42.38l.19-2.35-1.7-1.64c-.77-.74-1.31-1.62-1.62-2.62l-26.03-85.45c-2.42-7.96-4.93-16.19-9.27-23.01-4.29-6.75-10.35-12.21-16.75-18l-44.29-40c-2.52-2.28-2.72-6.18-.44-8.7,1.19-1.31,2.81-2.04,4.58-2.03,1.52,0,2.99.56,4.12,1.59l2.09,1.88,14.18,12.8-6.09-18.11-13.14-39.1c-1.08-3.22.66-6.72,3.87-7.8.64-.22,1.31-.32,1.97-.32,2.65,0,4.99,1.69,5.83,4.2l23.54,70.06c.28.85.36,1.78.22,2.78l-.36,2.62,1.96,1.77,10.21,9.22c6.42,5.81,13.7,12.39,18.88,20.53,5.25,8.23,8.13,17.69,10.67,26.03l6.04,19.83,13.45,44.16-3.68-46.02c-.22-2.7-.43-5.38-.65-8.01-.28-3.38,2.25-6.36,5.61-6.64.17-.01.34-.02.5-.02,3.25,0,5.9,2.43,6.17,5.65.94,11.47,1.83,22.72,2.47,34.35l9.99-.08c.12-3.33.48-6.84,1.1-10.74l.24-1.53-.67-1.4c-.98-2.04-.42-4.49,1.35-5.95l1.18-.97.44-1.46c4.09-13.74,11.38-25.92,18.44-37.71,3.13-5.23,5.93-9.94,8.49-14.67l2.29-4.22-4.12-2.46c-2.14-1.27-3.24-3.74-2.73-6.14.56-2.67,2.95-4.61,5.67-4.61.4,0,.8.04,1.21.13.21.04.43.08.65.12l.15.02,4.47.86,1.27-4.37c.88-3.02,1.47-5.53,1.86-7.9.7-4.28,1-8.86.94-14.4l-.04-3.62-3.45-1.09c-1.61-.51-2.84-1.77-3.29-3.37-4.54-15.96-10.95-31.77-19.05-46.98l-.99-1.86-2.02-.59c-.96-.28-2.31-.9-3.29-2.27-1.05-1.47-1.37-3.28-.91-5.09l.52-2.05-1.11-1.8c-5.02-8.11-10.46-15.88-16.18-23.08l-.54-.68-.74-.46c-1.14-.71-2-1.73-2.49-2.96l-.3-.76-.53-.62c-.46-.55-.92-1.1-1.38-1.66-.93-1.12-1.89-2.28-2.91-3.42-.89-.99-1.33-2.27-1.26-3.6.07-1.33.66-2.55,1.65-3.43.52-.46,1.16-.81,1.91-1.03l3.32-.98.26-3.45,3.47-46.75c.24-3.2,2.97-5.7,6.22-5.7.14,0,.28,0,.37.01,3.39.25,5.94,3.21,5.69,6.6l-4.54,61.18-.14,1.92,1.18,1.52c4.4,5.65,8.67,11.68,12.7,17.92l3.34,5.17,4.38-4.34c10.28-10.19,18.29-23.11,23.14-37.36l.66-1.92-.87-1.83c-.49-1.03-.67-2.11-.53-3.21.2-1.6,1.06-3.01,2.41-3.98l1.64-1.18.37-1.99c2.6-14.17,2.02-28.58-1.7-41.66-.93-3.27.97-6.68,4.25-7.61.55-.16,1.1-.24,1.66-.24,2.08,0,4.08,1.12,5.2,2.93l4.26,6.85,4.24-6.86c3.44-5.58,6.05-11.33,7.75-17.08.77-2.6,3.2-4.42,5.9-4.42.59,0,1.18.09,1.75.25,3.26.96,5.12,4.39,4.17,7.65-3.39,11.5-9.37,22.33-17.3,31.33-.72.82-1.69,1.42-2.86,1.77l-3.72,1.12.16,3.88c.27,6.59-.11,13.45-1.15,20.4l-.76,5.05,5.07.65,55.46,7.08c3.17.4,5.42,3.32,5.02,6.49-.37,2.89-2.84,5.07-5.74,5.07-.24,0-.49-.02-.75-.05l-57.85-7.39-4.03-.51-1.33,3.84c-6.13,17.7-16.45,33.38-29.84,45.34l-2.91,2.6,1.82,3.46c2.35,4.46,4.63,9.14,6.79,13.91l6.76,14.98,2.73-16.21c.57-3.38,1.32-6.43,2.29-9.32.68-2.03,2.58-3.4,4.71-3.4.54,0,1.07.09,1.59.26,1.26.42,2.28,1.31,2.88,2.5.59,1.19.69,2.54.26,3.8-1.46,4.35-2.33,9.19-2.69,14.82l-.54,8.61,7.74-3.81c19.13-9.42,33.76-27.87,38.16-48.15.61-2.81,3.14-4.86,6.02-4.85.43,0,.87.05,1.3.14,3.32.72,5.43,4,4.71,7.32-2.94,13.53-9.49,26.32-18.96,36.97-9.44,10.62-21.34,18.66-34.42,23.25l-3.58,1.25.24,3.78c.63,9.81,1.06,19.41-.51,29-.08.46-.19.96-.31,1.49-.09.39-.17.77-.25,1.16l-1.69,8.34,8.11-2.58c.95-.3,1.75-.57,2.59-.89.67-.26,1.38-.39,2.09-.39,2.38,0,4.55,1.49,5.41,3.71.56,1.45.52,3.02-.11,4.44-.63,1.42-1.77,2.5-3.22,3.06-5.22,2.02-10.87,3.27-16.77,3.71l-2.88.22-1.25,2.6c-3.7,7.67-8.22,15.22-12.21,21.89-3.6,6.01-7.31,12.22-10.51,18.5l-4.27,8.39,9.34-1.16c2.05-.25,4.13-.38,6.18-.38,5.79,0,11.34.99,16.49,2.94,2.57.97,3.87,3.86,2.9,6.42-.73,1.92-2.61,3.22-4.67,3.22-.6,0-1.19-.11-1.75-.32-4.1-1.55-8.49-2.34-13.03-2.34-5.96,0-11.91,1.38-17.23,4l-2.24,1.1-.47,2.45c-5.83,30.6,7.86,63.04,21.14,91.05l4.65,9.81,4.43-9.91,40.82-91.34c.8-1.79,2.59-2.95,4.55-2.95h.1s6.98.12,6.98.12l-2.14-6.65c-1.93-6-3.04-12.58-3.39-20.12l-.06-1.37-.75-1.14c-1.21-1.84-1.38-4.09-.45-6.03.18-.37.34-.75.51-1.13.1-.24.21-.48.32-.71l.42-.91.04-1c.2-4.74.57-9.33.89-13.38.2-2.47,2.01-4.53,4.5-5.13l2.7-.64.88-2.63c6.85-20.37,10.83-41.27,11.81-62.11.16-3.34,2.81-5.87,6.15-5.87.1,0,.21,0,.29,0,2.14.1,4.04,1.31,5.08,3.23l3.83,7.02,4.63-6.52c2.72-3.83,5.1-7.96,7.07-12.27l1.04-2.27-1.19-2.19c-.08-.14-.15-.27-.23-.38-.58-1.31-.66-2.78-.21-4.16.48-1.47,1.51-2.67,2.89-3.37.15-.08.3-.16.45-.25l2-1.03.48-2.35c.81-3.95,1.26-7.26,1.43-10.42.17-3.22,2.93-5.83,6.15-5.83.11,0,.22,0,.33,0,1.82.1,3.12.99,3.89,1.73l4.07,3.88,3.38-4.5c2.52-3.36,4.8-7.15,6.77-11.27l1.01-2.12-.99-2.13c-10.88-23.51-26.27-45.46-44.49-63.47-2.28-2.25-2.3-5.93-.05-8.21,1.1-1.11,2.57-1.72,4.13-1.72,1.54,0,2.99.59,4.08,1.67,13.56,13.4,25.44,28.55,35.33,45.02l6.05,10.08,3.07-11.35c.59-2.17,1.14-3.82,1.78-5.32,3.25-7.56,10.78-15.19,20.27-15.19.68,0,1.37.04,2.05.11,3.18.35,5.48,3.23,5.13,6.41-.33,2.94-2.82,5.16-5.8,5.16-.21,0-.42-.01-.64-.03h-.08s-.08-.01-.08-.01c-.14,0-.27-.02-.42-.02-3.56,0-7.76,3.51-9.77,8.16-1.7,3.94-2.34,8.47-3.03,13.27-.29,2.02-.62,4.3-1.02,6.46-3.55,18.84-14.73,36.24-30.69,47.75l-1.35.98-.5,1.59c-5.15,16.54-15.22,31.42-28.35,41.91-.37.29-.84.56-1.44.82l-2.54,1.08-.44,2.72c-3.4,21.24-9.59,41.91-18.4,61.42l-.44.98v1.07c-.03,11.63,1.58,20.51,5.08,27.94,5.21,11.09,14.88,19.85,25.13,29.12,6.18,5.6,13.19,11.94,18.83,19l6.37,7.99,2.4-9.93c1.9-7.88,3.99-14.16,6.58-19.78.06-.13.13-.25.19-.37.14-.25.27-.51.4-.77l1.27-2.65-1.69-2.4c-10.67-15.14-18.71-31.99-23.87-50.09-5.19-18.17-7.23-36.71-6.08-55.12.19-3.05,2.75-5.43,5.82-5.43.12,0,.23,0,.33,0,1.55.1,2.96.79,3.99,1.95,1.02,1.16,1.54,2.65,1.44,4.2-.32,5.17-.35,10.64-.09,16.28l.52,11.01,7.94-7.64c4.5-4.33,9.38-8.31,13.69-11.81,15.19-12.38,25.12-21.47,24.75-34.43-.1-3.39,2.59-6.23,6.01-6.33h.15c3.35,0,6.05,2.63,6.15,5.98.57,20-14.61,32.36-29.28,44.32-10.06,8.2-20.47,16.67-24.88,27.4l-.63,1.55.42,1.62c3.86,14.77,9.84,28.82,17.77,41.76l3.94,6.42,4.39-6.12.45-.63c.8-1.12,1.61-2.24,2.41-3.35,5.38-7.41,10.47-14.42,14.14-22.2,4.23-8.98,6.48-18.79,8.86-29.18,3.17-13.82,6.44-28.11,14.79-40.4,1.74-2.56,3.68-5.1,5.56-7.56,6.82-8.95,13.26-17.4,10.11-25.02-1.22-2.96.19-6.36,3.14-7.58.71-.29,1.46-.44,2.21-.44,2.36,0,4.47,1.41,5.37,3.59,5.7,13.79-3.9,26.38-11.61,36.49l-.17.23c-1.7,2.23-3.45,4.53-5.01,6.82-7.13,10.49-10.02,23.11-13.08,36.47l-.02.07c-2.41,10.51-4.9,21.37-9.65,31.45-4.13,8.77-9.77,16.54-15.25,24.08-2.63,3.62-5.34,7.36-7.78,11.07l-1.16,1.76.46,2.06c.48,2.19-.28,4.4-1.98,5.78-.5.4-1.06.72-1.69.94l-2.05.73-.86,2c-4.24,9.86-6.37,21.03-8.43,31.83-2.99,15.67-6.08,31.88-15.34,45.13l-.81,1.15-.09,1.41c-1.07,17.51-5.46,35.16-12.7,51.05l-7.05,15.46,14.3-9.18c3.75-2.41,7.49-4.63,11.08-6.6.87-.47,1.81-.71,2.78-.71,2.13,0,4.08,1.16,5.1,3.01,1.54,2.81.5,6.34-2.3,7.88-12.07,6.61-23.51,14.84-34,24.46l-1.98,1.82.42,2.65c2.13,13.37,2.34,26.92.62,40.26l-2.2,17.07,11-13.23c3.42-4.11,6.83-8.17,10.13-12.09,21.27-25.25,41.36-49.1,55.76-77.79,16-31.85,23.78-67.94,31.31-102.87,13.77-63.9,28-129.97,30.79-196.64l.09-2.26-1.64-1.56c-.16-.15-.33-.3-.5-.44l-.04-.04-32.65-37.55c-2.23-2.56-1.95-6.46.61-8.69,1.12-.97,2.55-1.51,4.03-1.51,1.79,0,3.48.77,4.66,2.12l17,19.56,9.03,10.38-.25-13.76c-.14-7.64-.38-15.54-.71-24.17l-.14-3.44-3.26-1.1c-.75-.25-1.43-.63-2-1.11-1.73-1.46-2.5-3.78-1.99-6.05l.94-4.18-3.99-1.56c-19.81-7.75-37.65-18.85-53.04-32.99-2.35-2.17-2.51-5.85-.35-8.2,1.12-1.21,2.64-1.88,4.28-1.88,1.46,0,2.85.54,3.92,1.53,13.88,12.75,29.86,22.86,47.52,30.03l7.09,2.88-.21-7.65c-.42-15.45-.35-28.08.23-39.72l.32-6.41-6.3,1.27c-.2.04-.39.09-.59.14-6.54.82-13.18,1.23-19.75,1.23-21.07,0-41.59-4.09-61.01-12.17-1.43-.6-2.55-1.71-3.14-3.14-.59-1.43-.59-3.01,0-4.44.9-2.17,3.01-3.57,5.36-3.57.76,0,1.51.15,2.22.45,18,7.48,37.02,11.28,56.54,11.28,6.17,0,12.39-.39,18.49-1.17.21-.03.42-.04.64-.04.69,0,1.4.14,2.12.42l6,2.3.75-6.38c3.19-27.06,10.26-49.49,21.63-68.56,1.06-1.77,2.92-2.83,4.99-2.83M515.66,644.23l5.75-1.86c3.05-.99,6.09-1.65,9.06-1.97.21-.02.43-.04.64-.04,2.9,0,5.43,2.27,5.74,5.18.34,3.18-1.96,6.05-5.14,6.4-3.14.34-6.26,1.14-9.25,2.36l-3.59,1.47.53,3.84c.39,2.83-1.29,5.49-4.01,6.33-.56.17-1.13.26-1.71.26-.91,0-1.82-.22-2.64-.64l-2-1.01-2.08.8c-.31.12-.69.26-.86.3l-5.82,1.23,2.21,5.52c5.62,14.02,10.67,28.25,15,42.3l3.41,11.07,5.72-10.07c6.65-11.71,13.76-23.36,21.13-34.61l1.24-1.89-.6-2.17c-.5-1.82-.13-3.69,1.01-5.14,16.96-21.42,25.54-49.72,24.18-79.68-1.36-29.96-12.49-57.36-31.32-77.15-2.2-2.32-2.11-6,.21-8.2,1.08-1.03,2.5-1.6,4-1.6,1.61,0,3.1.64,4.21,1.8,8.76,9.21,16.1,19.97,21.8,31.99l4.26,8.98,4.67-8.77c7.88-14.78,12.96-31.5,14.7-48.37l.17-1.62-.82-1.41c-1.16-1.99-1.02-4.48.36-6.33l.98-1.31v-1.63c.09-8.53-.67-16.92-2.23-24.94-.61-3.14,1.45-6.19,4.6-6.8.29-.06.6-.08.97-.08.13,0,.25,0,.38,0l7.93.34-3.11-7.3c-4.54-10.65-14.15-19.34-24.32-28.55-8.27-7.48-16.82-15.22-23.19-24.69l-5.03-7.49-3.68,8.24-24.65,55.17-1.43,3.21,2.53,2.44c.83.8,1.41,1.82,1.65,2.96,7.34,33.79.98,68.51-5.16,102.09-5.43,29.63-10.55,57.61-7.13,85.05l.75,6M440.05,675.98l5.71-21.72c7.91-30.09,14.72-57.23,18.02-84.74,3.84-32.03,2.03-59.48-5.54-83.92-.46-1.48-.31-3.05.41-4.42.72-1.37,1.94-2.38,3.42-2.84.56-.18,1.14-.26,1.72-.26,2.55,0,4.77,1.65,5.53,4.09,1.86,6.02,3.41,12.38,4.74,19.45l1.77,9.48,6.72-6.91c2.84-2.92,5.6-6.91,8.45-12.2l3-5.58-6.13-1.62c-1.45-.38-2.59-1.32-3.22-2.63-11.33-23.51-22.62-48.57-25.44-73.69l-9.97.69c.8,30.36-.59,75.25-21.73,114.36l-.68,1.25.08,1.42,2.24,37.68.05.8.29.74,5.41,13.7c1.02,2.58.15,5.55-2.12,7.2l-2.21,1.61.16,2.73,1.65,27.72c.22,3.64.45,7.53.74,11.48l.2,2.74,2.41,1.3c2.68,1.44,3.91,4.67,2.87,7.5-.36.98-.97,1.83-1.81,2.55l-2.12,1.8.41,2.75c.3,2.06.59,3.77.88,5.41l4.05,22.09M461.95,868.62l3.56-9.87c2.58-7.16,5.11-14.48,7.48-21.36,2.09-6.06,4.45-12.94,6.82-19.55,4.03-11.26,8.55-22.82,13.42-34.36l2.58-6.11-6.59-.8c-2-.24-3.63-1.34-4.49-3.02-1.25-2.43-.61-5.44,1.5-7.15l2.85-2.3-1.33-3.41c-1.19-3.04-4.27-7.44-8.22-9.89-17.17-10.67-23.21-21.3-17.95-31.59,1-1.95,2.98-3.16,5.18-3.16.92,0,1.8.21,2.62.63,2.82,1.44,3.96,4.81,2.6,7.66l-.98,2.06.91,2.09c1.07,2.45,4.32,6.6,13.74,12.46,4.81,2.99,9.25,7.92,11.86,13.19l4.54,9.16,4.44-9.21c1.52-3.15,2.92-6.01,4.29-8.74l.92-1.85-.65-1.96c-.2-.61-.3-1.08-.33-1.5-.05-.87.14-1.77.55-2.67l1.1-2.44-1.42-2.27c-.33-.53-.56-1.02-.69-1.5-8.96-31.97-20.99-63.26-35.76-92.97-.69-1.39-.8-2.96-.3-4.43.49-1.47,1.53-2.66,2.92-3.34.82-.41,1.68-.61,2.58-.61,2.22,0,4.21,1.23,5.2,3.22,3.04,6.11,6.08,12.58,9.29,19.77l3.02,6.74,5.14-5.3c.19-.19.37-.39.55-.59.15-.16.3-.33.46-.49l1.95-1.88-.51-2.66c-6.15-32.14-.06-65.39,5.82-97.53,4.62-25.23,8.98-49.07,8.2-72.75l-.71-21.68-8.85,19.8-3.56,7.97c-4.92,11.01-12.35,27.64-26,33.91l-3.15,1.44.24,3.45c3.27,46.24-9.15,93.4-21.16,139.02-1.81,6.89-3.32,12.63-4.85,18.57-.38,1.47-.73,2.91-1.08,4.34l-.39,1.59-.36,1.48.52,1.43c.84,2.29.23,4.86-1.54,6.54l-1.11,1.05-.33,1.49c-11.14,49.9-12.8,91.63-4.95,124.02l.2.83.46.71c.64,1,.96,2.17.9,3.4l-.04.83.23.8c3.22,11.02,7.54,20.93,13.2,30.31l5.42,8.98M965.61,551.12c-3.01,0-5.56-2.16-6.06-5.14-1.64-9.83-7.93-19.12-16.45-24.32-.1-.07-.22-.16-.37-.25l-1.63-1.03-1.9.33c-4.44.76-9.29,1.12-15.24,1.12-3.26,0-6.56-.1-9.74-.2-3.01-.09-6.12-.19-9.19-.19-5.35,0-9.61.31-13.39.99l-1.55.28-1.11,1.12-7.76,7.78-1.09,1.09-.28,1.52c-.36,1.89-1.62,3.48-3.36,4.25-.37.16-.78.28-1.25.38l-1.51.29-1.09,1.09-27.6,27.67-1.78,1.79.38,2.5c.28,1.82.57,3.77.78,5.7.35,3.18-1.95,6.05-5.12,6.4-.22.02-.45.04-.66.04-1.12,0-2.23-.35-3.22-1.02l-3.42-2.32-2.92,2.93-25.65,25.71-10.03,10.06,14.12-1.56c7.85-.87,16.48-1.27,27.16-1.27,6.59,0,13.3.15,19.23.29h.27c6.43.14,12.51.27,18.56.27,3.3,0,6.29-.04,9.16-.12,5.5-.16,11.35-.57,17.88-1.25l4-.42.44-4c.09-.78.25-1.42.51-1.96,9.36-19.77,16.3-40.68,20.64-62.13.58-2.87,3.1-4.94,6-4.94.41,0,.83.04,1.26.13,3.33.67,5.49,3.93,4.82,7.25-3.79,18.76-9.56,37.28-17.15,55.06l-3.8,8.89,9.45-2.04c43.21-9.33,85.31-30.3,121.73-60.62,2.32-1.93,4.58-3.9,6.67-5.74l2.68-2.35-1.35-3.3c-8.38-20.48-13.65-42.29-15.66-64.81l-.4-4.47-4.49-.08h-.07s-.05,0-.05,0c-.11,0-.22,0-.34,0-.72-.04-1.44-.06-2.16-.06-16.51,0-29.87,10.84-45.35,23.4l-.07.06c-7.7,6.25-16.44,13.34-25.68,18.58l-5.38,3.05,4.11,4.62c6.11,6.86,10.1,15.11,11.56,23.84.27,1.62-.11,3.25-1.06,4.59-.96,1.34-2.38,2.22-4.01,2.5-.32.05-.66.08-1.01.08M1056.85,603.85l-.44-13.23c-.12-3.66-.01-7.47.32-11.33l.12-1.42-.65-1.27c-.59-1.17-.81-2.45-.61-3.7.07-.42.21-.89.46-1.48l7.63-17.97-15.33,12.08c-3.66,2.88-7.29,5.62-10.78,8.14l-4.13,2.98,3.06,4.07c3.82,5.08,7.5,9.49,11.27,13.49l9.08,9.64M1090.82,663.7l-8.77-10.58c-6.79-8.2-11.73-15.5-15.55-22.98-1.24-2.44-2.42-5.05-3.5-7.77l-1.04-2.62-2.78-.47c-.98-.16-1.88-.57-2.66-1.2-11.14-8.95-21.22-19.48-29.97-31.28l-2.75-3.71-3.92,2.44c-15.84,9.88-32.34,18.2-49.02,24.75l-9.81,3.85,9.19,5.16c18.59,10.45,37.6,19.86,56.5,27.99,1.82.78,3.1,2.44,3.41,4.43l.63,4.01,4.05.2c5.64.28,11.5.79,17.92,1.54,7.44.87,15.24,2.07,24.54,3.77l13.52,2.48M898.04,707.35l-4.03.09c-.12,0-.24,0-.34.02-1.33-.05-2.6-.56-3.6-1.44-19.35-16.99-27.88-45.47-21.23-70.87l1.61-6.17-6.38-.1c-3.18-.05-6.87-.11-10.43-.18-6.32-.14-12.85-.29-19.3-.29-20.37,0-41.76,1.31-60.17,10.83l-.69.36-.55.55-54.56,54.7-9.98,10,14.05-1.5c25.84-2.76,53.58-5.32,81.43-5.32,7.53,0,14.91.19,21.95.56l.59.03.58-.11c.31-.06.63-.09.96-.09.55,0,1.11.08,1.67.24l.51.14.53.04c9.97.66,19.71,1.73,28.96,3.19,1.53.24,2.88,1.06,3.79,2.31.91,1.25,1.28,2.78,1.04,4.32-.44,2.8-2.9,4.91-5.72,4.91-.3,0-.61-.02-.91-.07-8.62-1.35-17.47-2.33-27.06-2.99l-1.64-.11-1.39.88c-27.13,17.28-60.89,38.79-96.86,52.05-24.58,9.06-48.66,13.65-71.56,13.65-6.34,0-12.77-.39-19.11-1.16l-2.39-.29-1.72,1.69c-14.29,14.08-31.47,30.38-50.54,44.56l-12.04,8.95,15,.06c.44,0,.88,0,1.32,0,41.51,0,83.01-8.34,120.03-24.11,8.85-3.78,17.74-8.07,26.34-12.22l.09-.04c13.72-6.63,27.9-13.48,42.69-18.62,16.7-5.81,34.66-9.47,53.4-10.88l3.35-.25,1.03-3.19c.27-.84.85-2.02,2.09-2.92l55.21-39.94,12.93-9.36,28.47-20.6c12.88-9.31,26.2-18.94,41.6-25.01,6.77-2.67,14.3-4.7,22.36-6.05l15.67-2.61-14.33-6.83c-17.43-8.31-34.35-17.35-50.28-26.88-.34-.2-.69-.49-1.11-.91l-2.07-2.08-2.83.8c-19.24,5.42-38.72,8.62-57.9,9.51l-3.22.15-1.19,3c-8.85,22.28-2.31,49.84,15.56,65.53,1.78,1.56,2.42,4.03,1.63,6.28l-1.32,3.77M704.91,716.9c-.92,0-1.84-.25-2.73-.73l-3.29-1.78-2.64,2.65-39.69,39.79-8.57,8.59,12.14-.06c26.59-.13,50.97-7.09,66.74-12.9,19.97-7.36,40.46-17.65,66.44-33.35l16.23-9.81-18.95.53c-28.57.8-57.27,3.98-85.01,7.04-.22.02-.44.04-.66.04M1122.93,896.71l-4.21-13.5c-3.13-10.06-5.69-20.51-7.6-31.09l-.84-4.65-4.69.57c-2.15.26-4.23.39-6.18.39-6.25,0-12.57-1.16-18.28-3.35-2.99-1.15-4.48-4.51-3.34-7.5.87-2.26,2.99-3.72,5.42-3.72.71,0,1.41.13,2.08.39,4.38,1.68,9.07,2.54,13.94,2.54,1.52,0,3.05-.09,4.56-.26l4.89-.55-.47-4.9c-1.95-20.19-1.52-40.59,1.27-60.64l.79-5.63-5.69-.06c-.6,0-1.21-.01-1.81-.01-.8,0-1.6-.01-2.37-.02l-64.98-.87-8.16-.11,3.6,7.32c7.41,15.05,19.39,27.69,33.72,35.59,1.36.75,2.34,1.98,2.77,3.47.43,1.49.26,3.05-.49,4.41-1.02,1.85-2.97,3.01-5.09,3.01-.98,0-1.92-.24-2.79-.72-19.35-10.66-34.84-28.88-42.5-49.98l-1.18-3.25-3.45-.05-35.61-.48c-.17,0-.51-.06-.87-.12l-2.41-.4-1.8,1.66c-5.13,4.74-10.84,8.96-16.99,12.55l-8.79,5.13,9.43,3.83c19.45,7.89,38.44,17.85,56.43,29.58,18.04,11.76,35.43,25.26,52.24,38.31,16.24,12.6,31.57,24.5,47.68,35.27l11.76,7.86M751.71,844.94l-.44-6.55c-.08-1.17.19-2.33.79-3.34,13.41-22.67,39.52-37.32,66.51-37.32,6.08,0,12.09.74,17.87,2.21,1.5.38,2.77,1.32,3.56,2.65.79,1.33,1.02,2.89.64,4.39-.65,2.58-2.97,4.38-5.62,4.38-.48,0-.96-.06-1.43-.18-4.76-1.2-9.73-1.81-14.78-1.81-21.88,0-43.57,11.49-55.26,29.27l-4.81,7.31,8.73.43c2.82.14,5.76.21,8.75.21,17.24,0,35.12-2.37,50.89-4.46l60.5-8.03,6.38-.85-2.39-5.97c-5.79-14.44-9.47-29.5-10.94-44.77l-.39-4.05-4.04-.44c-8.8-.97-17.61-1.46-26.21-1.46-23.7,0-46.24,3.66-66.98,10.88-14.11,4.91-27.35,11.31-41.4,18.09-8.72,4.21-17.73,8.57-26.94,12.5-1.71.73-3.43,1.4-5.25,2.11-.71.28-1.42.55-2.13.83l-10.22,4.04,9.75,5.05c12.1,6.27,25.02,10.83,38.41,13.57l6.43,1.31M434.92,922.91l4.5-7.15c5.89-9.37,11.41-20.22,16.86-33.15l1.63-3.87-3.53-2.27c-.74-.48-1.25-.93-1.61-1.44-2.66-3.73-5.22-7.77-7.6-11.99l-3.51-6.23-4.64,5.44c-8.67,10.16-20.74,17.57-33.97,20.87l-13.59,3.38,12.66,5.99c2.53,1.2,4.72,2.27,6.71,3.27,9.58,4.84,17.8,12.24,22,19.78l4.11,7.38M913.83,215.82c3.33,0,6.09,2.55,6.28,5.8.78,13.51-3.17,27.64-11.42,40.85l-4.31,6.89,8.09.74,27.12,2.47c1.64.15,3.12.93,4.17,2.19,1.05,1.26,1.55,2.86,1.4,4.5-.29,3.14-2.97,5.6-6.12,5.6-.19,0-.38,0-.57-.03l-42.58-3.88-2.21-.2-1.63,1.5c-12.64,11.64-27.03,19.9-40.69,27.09l-2.84,1.5.18,3.21c.45,7.99.56,15.85.34,24.02-.07,2.46-1.59,4.64-3.87,5.55-12.39,4.95-23.57,12.94-32.32,23.12l-1.3,1.51.1,1.99c.59,12.02-1.37,24.18-5.68,35.17l-2.6,6.64,7.13.18c4.06.1,7.42.31,10.55.66,3.38.38,5.81,3.44,5.43,6.81-.35,3.12-2.98,5.47-6.11,5.47-.23,0-.47-.01-.69-.04-4-.45-8.09-.68-12.15-.68-4.59,0-9.25.29-13.84.86l-.38.05-.37.1c-.58.16-1.07.26-1.49.28h-.26s-.4,0-.4,0l-.4.06c-3.58.56-7.14,1.29-10.66,2.2l10.52-18.16c6.85-11.84,10.1-26.11,9.15-40.2l-.04-.61-.19-.58c-.25-.78-.33-1.62-.25-2.49l.06-.58-.08-.58c-1.25-9.16-4.14-17.63-8.59-25.18-2.48-4.2-5.52-8.55-8.46-12.77-10.58-15.18-22.58-32.38-15.01-51.04.95-2.34,3.19-3.85,5.71-3.85.79,0,1.57.15,2.31.45,3.15,1.28,4.67,4.87,3.4,8.02-4.71,11.6,2.37,23.12,13.7,39.37,3.08,4.42,6.27,8.98,8.96,13.56,2.18,3.7,4.12,7.83,5.77,12.29l2.46,6.66,5.44-4.57c6-5.04,12.54-9.3,19.44-12.68l2.79-1.36v-3.1c.03-3.98-.04-7.9-.2-12l-.1-2.59-2.17-1.41c-.95-.62-1.68-1.4-2.15-2.32-1.25-2.44-.69-5.45,1.36-7.33l1.91-1.74-.32-2.57c-2.19-17.59-6.54-32.53-13.3-45.66-1.55-3.02-.36-6.74,2.66-8.29.88-.45,1.82-.68,2.8-.68,2.33,0,4.43,1.28,5.49,3.34,6.3,12.25,10.66,25.76,13.31,41.3l1.19,6.96,6.17-3.44c10.65-5.93,18.84-11.36,25.77-17.07l1.68-1.38.13-2.17c0-.14.01-.27.01-.38.38-2.98,2.89-5.25,5.92-5.32l2.2-.05,1.45-1.66c11.91-13.61,18.01-29.18,17.16-43.84-.2-3.38,2.39-6.29,5.76-6.5.08,0,.17,0,.25,0M928.33,308.62c2.07,0,3.98,1.02,5.13,2.73l40.09,59.84c.16.24.33.6.47.92l2.1,4.65-4.19,2.91c-.09.06-.17.12-.25.18-.98.61-2.09.93-3.24.93-2.06,0-3.98-1.02-5.13-2.73l-40.09-59.84c-.92-1.37-1.24-3.01-.93-4.62.32-1.61,1.25-3.01,2.61-3.92,1.02-.68,2.2-1.04,3.41-1.04M916.26,364.75c2.52,0,4.75,1.51,5.71,3.83,6.97,17.07,19.45,31.8,35.14,41.48,1.06.66,1.89,1.62,2.4,2.78l3.17,7.29-7.91,1.18c-.18.03-.35.06-.53.09-.14.02-.33.06-.41.07-1.12,0-2.22-.32-3.18-.92-17.89-11.04-32.13-27.84-40.08-47.31-.62-1.52-.61-3.2.02-4.71.64-1.52,1.83-2.69,3.35-3.31.75-.31,1.53-.46,2.32-.46M748.14,2.5c-3.68,0-7.27,1.88-9.29,5.28-13,21.82-19.37,45.73-22.3,70.53-1.23-.47-2.54-.75-3.91-.75-.42,0-.84.03-1.27.08-5.93.76-11.9,1.13-17.86,1.13-18.68,0-37.29-3.69-54.62-10.9-1.35-.56-2.76-.83-4.14-.83-4.23,0-8.25,2.5-9.98,6.66-2.29,5.51.32,11.83,5.83,14.12,19.98,8.31,41.4,12.55,62.93,12.55,6.86,0,13.73-.43,20.56-1.3.26-.03.5-.12.76-.18-.65,13.26-.59,26.68-.23,40.1-16.9-6.86-32.59-16.73-46.02-29.07-2.08-1.91-4.69-2.85-7.31-2.85-2.92,0-5.83,1.18-7.96,3.49-4.03,4.39-3.75,11.23.64,15.26,15.87,14.59,34.52,26.11,54.6,33.97-.88,3.93.35,8.19,3.64,10.97,1.1.93,2.34,1.59,3.62,2.03.32,8.04.56,16.08.71,24.07l-17-19.56c-2.21-2.54-5.31-3.84-8.43-3.84-2.6,0-5.2.9-7.31,2.73-4.65,4.05-5.15,11.09-1.1,15.74l32.75,37.67c.23.27.51.46.76.7-2.77,66.17-16.93,131.94-30.69,195.79-7.46,34.61-15.18,70.39-30.89,101.68-14.13,28.14-34.04,51.78-55.12,76.81-3.35,3.98-6.76,8.02-10.15,12.11,1.78-13.82,1.55-27.92-.64-41.69,10.02-9.2,21.07-17.22,33.02-23.76,5.23-2.87,7.15-9.43,4.29-14.67-1.97-3.58-5.67-5.61-9.49-5.61-1.75,0-3.53.43-5.18,1.33-3.88,2.13-7.67,4.4-11.39,6.79,7.56-16.58,12.03-34.62,13.14-52.82,9.87-14.12,13.06-30.83,16.15-47.06,2.11-11.06,4.14-21.53,8.11-30.79,1.11-.4,2.18-.97,3.15-1.76,3.3-2.66,4.58-6.87,3.73-10.75,2.37-3.61,4.97-7.19,7.65-10.88,5.6-7.71,11.39-15.69,15.73-24.89,4.99-10.6,7.54-21.75,10.02-32.54,2.95-12.89,5.75-25.07,12.34-34.77,1.53-2.25,3.27-4.53,5.02-6.83,8.04-10.54,19.05-24.99,12.26-41.43-1.72-4.17-5.75-6.68-9.99-6.68-1.37,0-2.77.26-4.12.82-5.51,2.28-8.14,8.6-5.86,14.11,1.91,4.61-2.72,11.23-9.47,20.08-1.92,2.52-3.91,5.13-5.71,7.78-8.88,13.07-12.26,27.82-15.53,42.09-2.32,10.12-4.51,19.68-8.51,28.16-3.46,7.36-8.42,14.18-13.66,21.4-.96,1.32-1.92,2.66-2.88,4-7.67-12.52-13.48-26.19-17.19-40.41,3.87-9.43,13.34-17.22,23.41-25.42,14.89-12.13,31.76-25.88,31.12-48.34-.17-6.05-5.13-10.84-11.15-10.84-.11,0-.22,0-.32,0-6.16.18-11.01,5.31-10.84,11.47.3,10.7-8.45,18.63-22.91,30.41-4.62,3.76-9.46,7.72-14,12.09-.25-5.24-.25-10.49.08-15.73.37-5.96-4.15-11.08-10.1-11.46-.21-.01-.43-.02-.64-.02-5.68,0-10.46,4.38-10.81,10.12-2.39,38.21,8.81,77.13,30.86,108.4-.2.41-.43.8-.62,1.21-3.09,6.71-5.21,13.69-6.9,20.7-5.81-7.28-12.8-13.63-19.38-19.59-9.86-8.93-19.18-17.36-23.96-27.54-3.64-7.74-4.63-16.73-4.6-25.81,8.96-19.85,15.32-41.07,18.78-62.69.91-.39,1.79-.86,2.6-1.51,14.15-11.3,24.62-27.04,30-44.33,16.71-12.05,28.88-30.67,32.68-50.88.41-2.21.74-4.45,1.06-6.68.64-4.46,1.24-8.67,2.68-12.01,1.39-3.23,4.13-5.14,5.17-5.14.02,0,.04,0,.06,0,.39.04.78.06,1.16.06,5.45,0,10.15-4.06,10.77-9.6.66-5.93-3.61-11.27-9.54-11.93-.88-.1-1.75-.14-2.6-.14-11.73,0-20.84,8.86-24.86,18.21-.86,1.99-1.48,4-2.02,5.99-10.04-16.74-22.09-32.16-36.1-46.01-2.11-2.08-4.85-3.11-7.59-3.11-2.79,0-5.57,1.07-7.69,3.21-4.19,4.25-4.15,11.08.09,15.28,17.93,17.71,32.87,39.1,43.47,62.01-1.75,3.66-3.81,7.17-6.26,10.42-1.86-1.77-4.3-2.95-7.07-3.1-.2-.01-.4-.02-.6-.02-5.83,0-10.82,4.61-11.14,10.56-.17,3.26-.68,6.49-1.33,9.69-.1.05-.19.12-.3.17-5.32,2.7-7.45,9.2-4.75,14.52.04.09.12.15.16.24-1.84,4.02-4.04,7.85-6.6,11.45-1.8-3.3-5.2-5.63-9.23-5.82-.18,0-.35-.01-.53-.01-6.05,0-10.86,4.64-11.15,10.63-.97,20.54-4.96,41.14-11.56,60.76-4.44,1.06-7.94,4.79-8.33,9.59-.34,4.28-.7,8.85-.91,13.56-.28.59-.52,1.21-.8,1.8-1.75,3.66-1.29,7.78.78,10.94.33,7.12,1.36,14.36,3.62,21.42-.06,0-.12,0-.18,0-3.82,0-7.46,2.2-9.12,5.91l-40.82,91.35c-14.41-30.38-26.08-59.98-20.75-87.97,4.64-2.29,9.84-3.48,15.02-3.48,3.84,0,7.67.66,11.26,2.02,1.16.44,2.35.64,3.52.64,4.03,0,7.83-2.45,9.35-6.44,1.95-5.15-.65-10.91-5.8-12.87-5.81-2.2-12.03-3.27-18.26-3.27-2.27,0-4.54.14-6.8.42,3.08-6.04,6.66-12.03,10.35-18.2,4.32-7.22,8.7-14.56,12.43-22.28,6.24-.47,12.41-1.79,18.2-4.03,5.57-2.15,8.33-8.4,6.18-13.97-1.66-4.28-5.74-6.91-10.08-6.91-1.3,0-2.61.23-3.89.73-.76.29-1.53.54-2.3.79.19-.95.43-1.87.59-2.84,1.67-10.21,1.19-20.31.57-30.13,28.24-9.9,50.25-34.53,56.61-63.88,1.31-6.02-2.52-11.96-8.54-13.27-.79-.17-1.58-.26-2.37-.26-5.13,0-9.77,3.57-10.9,8.79-4.15,19.14-17.89,36.07-35.48,44.73.29-4.7.99-9.24,2.44-13.55,1.75-5.23-1.06-10.88-6.29-12.63-1.05-.35-2.12-.52-3.18-.52-4.18,0-8.06,2.64-9.46,6.81-1.12,3.36-1.91,6.72-2.48,10.08-2.16-4.8-4.47-9.53-6.92-14.19,14.24-12.72,24.95-29.29,31.24-47.44l57.85,7.39c.46.06.93.09,1.38.09,5.36,0,10-3.98,10.7-9.44.76-5.92-3.43-11.33-9.34-12.08l-55.46-7.08c1.06-7.08,1.5-14.23,1.2-21.35,1.93-.58,3.74-1.63,5.17-3.25,8.41-9.54,14.75-21.03,18.35-33.22,1.74-5.91-1.64-12.12-7.55-13.86-1.05-.31-2.12-.46-3.16-.46-4.83,0-9.26,3.15-10.7,8-1.64,5.58-4.14,10.9-7.21,15.87-2.03-3.27-5.61-5.29-9.45-5.29-1,0-2.02.14-3.04.43-5.93,1.68-9.37,7.86-7.68,13.78,3.63,12.77,4,26.31,1.59,39.39-2.36,1.69-4.06,4.3-4.46,7.41-.27,2.13.12,4.18.97,5.98-4.53,13.3-12.01,25.59-21.93,35.42-4.06-6.28-8.37-12.38-12.96-18.28l4.54-61.18c.45-6.15-4.16-11.49-10.3-11.95-.25-.02-.5-.02-.74-.02-5.81,0-10.77,4.43-11.21,10.33l-3.47,46.75c-1.37.4-2.69,1.08-3.82,2.1-4.11,3.67-4.46,9.98-.79,14.09,1.45,1.62,2.8,3.32,4.2,4.98.89,2.23,2.47,4.11,4.51,5.37,5.72,7.2,10.99,14.77,15.84,22.6-.78,3.08-.3,6.45,1.69,9.23,1.51,2.11,3.64,3.49,5.95,4.16,7.79,14.65,14.12,30.08,18.65,46,.95,3.35,3.51,5.79,6.59,6.77.05,4.64-.16,9.16-.88,13.54-.4,2.48-1.02,4.9-1.72,7.31-.24-.05-.48-.07-.71-.12-.75-.16-1.5-.23-2.23-.23-4.99,0-9.49,3.49-10.56,8.57-.98,4.64,1.21,9.17,5.07,11.47-2.6,4.79-5.46,9.59-8.39,14.48-7.26,12.13-14.72,24.67-18.94,38.85-3.58,2.95-4.62,7.9-2.68,11.97-.6,3.78-1.01,7.56-1.15,11.33-.65-11.9-1.58-23.49-2.48-34.48-.48-5.84-5.33-10.24-11.15-10.24-.29,0-.59.01-.88.03-6.14.5-10.71,5.89-10.21,12.03.22,2.63.43,5.31.65,8.01l-6.04-19.83c-2.63-8.65-5.62-18.46-11.23-27.26-5.54-8.71-13.09-15.53-19.75-21.55l-10.21-9.23c.23-1.65.13-3.36-.44-5.05l-23.54-70.06c-1.57-4.66-5.9-7.6-10.57-7.6-1.18,0-2.38.19-3.56.58-5.84,1.96-8.98,8.29-7.02,14.13l13.14,39.1-2.09-1.88c-2.14-1.93-4.81-2.88-7.47-2.88-3.05,0-6.08,1.24-8.29,3.68-4.13,4.57-3.77,11.63.8,15.76l44.29,40c6.15,5.56,11.96,10.81,15.89,16.98,3.98,6.24,6.38,14.14,8.71,21.78l26.03,85.45c.57,1.88,1.61,3.49,2.93,4.76-1.11,14.07-3.34,28-7.23,41.39-1.52-.74-3.21-1.19-5-1.19-.17,0-.35,0-.53.01-6.04.36-10.64,5.47-10.46,11.49l-45.58-115.35c-1.73-4.38-5.94-7.06-10.38-7.06-1.36,0-2.75.25-4.09.78-5.73,2.27-8.54,8.75-6.28,14.48l70.55,178.54,3.03,50.96c.02.41.05.83.08,1.25-16.98-6.73-33.56-14.44-47.84-25.21-4.33-3.26-8.29-6.75-11.89-10.39-1.27-45.26-1.89-91.13-1.84-136.45,0-6.16-4.98-11.16-11.14-11.17h-.01c-6.16,0-11.15,4.99-11.16,11.14-.04,29.06.23,58.34.74,87.55-.58-5.68-5.3-10.01-11.09-10.01-.14,0-.29,0-.44,0-6.16.27-10.93,5.47-10.67,11.63.65,15.21,5.79,30.32,14.67,44.22-10.14-1.09-20.13-3.17-29.84-6.2.13-1.1.16-2.23-.05-3.37-6.21-33.69-1.02-67.72,4.47-103.75,4.4-28.84,8.94-58.66,7.2-88.58l-.2-3.23c-.42-6.45-.82-12.55.61-17.6,1.14-4.01,4.21-7.5,6.71-7.62,6.15-.29,10.9-5.52,10.61-11.68-.29-5.99-5.18-10.62-11.19-10.62-.16,0-.32,0-.49.01-7.79.37-14.19,4.07-18.93,9.19-15.19-45.09-44.53-84.99-83.66-112.61-1.95-1.38-4.2-2.04-6.42-2.04-3.5,0-6.96,1.65-9.13,4.73-3.55,5.03-2.35,12,2.68,15.55,21.08,14.87,38.97,33.73,52.91,55.15-6.92-1.06-13.88-1.47-20.48-1.85-16.75-.96-31.21-1.79-38.67-11.6-2.19-2.89-5.52-4.4-8.89-4.4-2.35,0-4.73.74-6.75,2.28-4.9,3.73-5.85,10.73-2.12,15.63,13.68,17.98,35.71,19.25,55.15,20.37,14.37.82,27.94,1.61,37.21,8.27.08.06.17.09.25.15,6.83,15.42,11.78,31.72,14.57,48.5.47,2.81,1.96,5.18,4.01,6.83.46,9.65.25,19.42-.45,29.24-8.59-3.26-17.41-5.41-26.05-7.49-4.61-1.11-8.97-2.16-13.28-3.37-18.55-5.21-30.56-13.06-35.71-23.34-1.95-3.91-5.89-6.17-9.98-6.17-1.68,0-3.38.38-4.98,1.18-5.51,2.76-7.74,9.46-4.99,14.97,8.07,16.14,24.77,27.87,49.63,34.85,4.71,1.32,9.48,2.47,14.08,3.58,10.34,2.49,20.18,4.89,28.9,9-1.25,9.84-2.73,19.66-4.21,29.36-.9,5.93-1.81,11.9-2.67,17.89-20.99-9.79-40.15-23.71-55.87-40.69-2.2-2.38-5.19-3.58-8.19-3.58-2.71,0-5.43.98-7.58,2.97-4.52,4.18-4.79,11.24-.61,15.77,19.27,20.82,43.18,37.5,69.32,48.58-2.1,19.9-2.84,40.02-.3,60.13-3.08-1.54-6.11-3.18-9.09-4.93-1.77-1.04-3.72-1.54-5.64-1.54-3.83,0-7.55,1.97-9.63,5.5-3.12,5.31-1.35,12.15,3.96,15.27,26.37,15.5,56.47,24,87.06,24.56.07,0,.14,0,.21,0,1.78,0,3.44-.46,4.93-1.2,3.42,3.22,7.06,6.32,10.95,9.25,19.44,14.67,41.45,23.89,63.32,32.11,1.9,15.73,5.55,32.1,13.7,46.76-3.54,15.23-6.75,31.78-8.77,48.93-1.86-2.16-3.85-4.2-5.96-6.12.08-1.24,0-2.51-.35-3.77l-18.77-66.72c-1.38-4.92-5.87-8.13-10.74-8.13-1,0-2.01.13-3.02.42-5.93,1.67-9.39,7.83-7.72,13.76l15.56,55.31c-1.44.97-2.7,2.26-3.56,3.91-2.76,5.29-.71,11.81,4.58,14.57,13.26,6.92,23.05,20.96,24.95,35.78.31,2.42,1.43,4.53,3.02,6.15.16,4.1.42,8.19.8,12.27-9.61-7.65-19.56-14.22-30.22-18.83-20.4-26.64-28.47-62.42-21.06-95.2,1.31-5.82-2.34-11.6-8.15-12.92-.8-.18-1.6-.27-2.38-.27-4.93,0-9.4,3.4-10.53,8.42-1.13,4.99-1.93,10.04-2.47,15.11-8.98-7.85-19.83-13.72-30.49-19.47-10.29-5.55-20.01-10.79-27.69-17.56-12.18-10.73-19.73-25.98-27.72-42.13-3.66-7.38-7.44-15.02-11.75-22.33-9.62-16.32-20.7-27.21-31.84-34.09-.17-26.02-1.01-52.19-2.6-78.06-.36-5.92-5.26-10.47-11.14-10.47-.22,0-.45,0-.67.02-6.15.38-10.83,5.67-10.45,11.82.64,10.47,1.12,21.01,1.53,31.56-25.31-4.44-48.24-21.45-59.2-44.81-1.9-4.05-5.92-6.42-10.11-6.42-1.59,0-3.2.34-4.73,1.06-5.58,2.62-7.98,9.26-5.36,14.84,14.66,31.22,46.02,53.52,80.1,57.94.1,4.56.22,9.12.28,13.68-3.4-.62-6.71-.91-9.87-.91-4.42,0-8.56.56-12.32,1.57-5.95,1.59-9.48,7.71-7.89,13.66,1.33,4.98,5.83,8.28,10.75,8.28.96,0,1.94-.13,2.91-.39,2.3-.62,4.62-.91,6.93-.91,3.21,0,6.42.56,9.59,1.56,0,.48,0,.97,0,1.45-.03,6.16,4.95,11.18,11.11,11.21h.05c2.46,0,4.72-.83,6.57-2.18,6.67,5.82,12.6,13.2,17.15,20.93,3.9,6.61,7.33,13.55,10.97,20.9,8.6,17.37,17.49,35.33,32.97,48.97,9.59,8.45,20.9,14.55,31.84,20.45,17.17,9.26,32,17.26,37.31,31.83.97,2.66,2.86,4.71,5.16,5.96,2.43,13.88,6.91,27.4,13.36,39.92-1.1-.05-2.19-.07-3.28-.07-9.43,0-18.56,1.63-27.47,3.6-12.09-43.58-55.11-76.31-100.21-76.32-1.16,0-2.32.02-3.49.07-5.96.21-10.62,5.22-10.4,11.19.21,5.83,5,10.41,10.79,10.41.13,0,.27,0,.4,0,.82-.03,1.65-.04,2.47-.04,34.91,0,69.31,25.86,79.24,59.39-5.56,1.05-10.98,1.77-16.23,1.77-3.96,0-7.83-.41-11.59-1.4-5.22-1.38-10.4-3.94-15.9-6.64-1.52-.75-3.04-1.5-4.57-2.23-14.58-6.95-29.94-12.05-45.68-15.28-.59-1.62-1.53-3.14-2.89-4.38-11.83-10.85-14.11-30.16-16.31-48.82l-.7-5.89c-1.18-9.5-3.1-18.01-5.68-25.57l14.4-10.91c4.91-3.72,5.88-10.72,2.16-15.63-2.19-2.9-5.53-4.42-8.9-4.42-2.35,0-4.71.74-6.72,2.26l-11.13,8.43c-6.24-8.53-14.1-14.45-23.45-17.57-1.17-.39-2.37-.58-3.54-.58-4.67,0-9.02,2.96-10.57,7.63-1.95,5.84,1.21,12.16,7.05,14.11,16.93,5.65,22.45,30.61,24.24,44.99l.69,5.76c.05.4.1.81.14,1.21-7.88.94-15.83,1.26-23.91,1.26-8.98,0-18.12-.4-27.5-.82-8.71-.39-17.71-.79-26.64-.84-.53,0-1.05,0-1.58,0-38.33,0-66.98,8.17-87.54,24.97-4.77,3.9-5.48,10.92-1.58,15.7,2.2,2.7,5.41,4.1,8.65,4.1,2.48,0,4.98-.82,7.05-2.52,16.42-13.41,40.44-19.93,73.41-19.93.48,0,.97,0,1.46,0,2.04.01,4.13.09,6.19.14-10.44,10.75-18.58,23.81-23.3,37.92-1.95,5.84,1.2,12.17,7.05,14.12,1.17.39,2.37.58,3.54.58,4.67,0,9.02-2.95,10.58-7.62,5.69-17.03,17.76-32.16,33.1-41.5,1.01-.62,1.85-1.4,2.59-2.25,4.77.16,9.57.27,14.39.27,9.07,0,18.21-.38,27.34-1.5,1.67,8.13,4.08,16.13,7.91,23.48-3.6-.19-7.21-.29-10.82-.29-14.07,0-28.15,1.46-41.96,4.45-5.83,1.26-9.53,7.01-8.27,12.84,1.1,5.07,5.59,8.52,10.56,8.52.75,0,1.52-.08,2.29-.25,12.34-2.67,24.92-3.99,37.48-3.99,18.17,0,36.3,2.76,53.67,8.18-2.97,2.41-5.54,5.31-7.51,8.66-3.03,5.14-1.33,11.76,3.81,14.8,1.73,1.02,3.62,1.5,5.48,1.5,3.7,0,7.3-1.9,9.31-5.31,2.11-3.57,6.62-5.87,10.88-5.87,1.09,0,2.16.15,3.17.47,1.05.33,2.12.48,3.16.48,1.59,0,3.14-.36,4.56-1.01,4.65,2.2,9.49,4.27,14.82,5.68,5.81,1.54,11.55,2.16,17.22,2.16,11.8,0,23.3-2.68,34.55-5.3,10.61-2.47,20.7-4.8,30.43-4.8,1.01,0,2.01.02,3.01.08,5.8.31,11.41,1.57,16.89,3.53.55.65,1.07,1.34,1.64,1.98,2.14,2.42,5.11,3.65,8.1,3.65.71,0,1.41-.09,2.11-.22,13,7.19,25.36,17.93,37.73,29.53.96,3.35,2.01,6.68,3.19,9.97-.42.51-.81,1.06-1.14,1.66-8.03,14.6-24.51,24.02-41.07,24.02-1.5,0-3.01-.08-4.51-.24-.39-.04-.77-.06-1.15-.06-4.55,0-8.53,2.88-10.08,7.05-8.11-2.73-16.34-5.11-24.65-7.12-4.53-1.1-9.11-2.08-13.69-3.08-14.01-3.03-27.24-5.89-39.09-11.73-5.28-2.6-10.36-5.84-15.73-9.26-2.66-1.69-5.37-3.41-8.15-5.09-.06-.04-.11-.09-.18-.13-.06-.04-.13-.06-.19-.09-2.98-1.79-6.05-3.51-9.25-5.09-13.66-6.73-28.87-10.09-44.08-10.09-16.15,0-32.3,3.78-46.6,11.32-3.2,1.69-5.35,4.87-5.71,8.48-.36,3.6,1.1,7.15,3.91,9.44l6.21,5.09c2.01,1.65,4.43,2.45,6.84,2.45,3.12,0,6.22-1.35,8.36-3.96,1.78-2.17,2.57-4.82,2.43-7.42,7.87-2.54,16.14-3.81,24.42-3.81,11.42,0,22.84,2.42,33.2,7.25-3.88,7.37-7.26,15.02-10.12,22.88l-63.94.12c-.17-.09-.32-.2-.5-.28-25.52-10.94-49.26-27.23-68.64-47.12-2.12-2.18-4.93-3.27-7.74-3.27-2.72,0-5.44,1.02-7.53,3.07-4.27,4.16-4.37,11-.2,15.27,3.13,3.21,6.39,6.31,9.71,9.34-.04,0-.09,0-.13,0-15.51,0-31,4.12-44.41,12.2-5.28,3.18-6.98,10.04-3.8,15.32,2.09,3.47,5.78,5.4,9.56,5.4,0,0,0,0,.01,0,1.96,0,3.94-.52,5.75-1.6,9.81-5.91,21.45-8.96,33.04-8.96,7.25,0,14.48,1.19,21.23,3.63,1.24.45,2.51.66,3.75.66,2.46,0,4.84-.82,6.77-2.29.89.57,1.76,1.17,2.65,1.73-14.43,4-23.5,11.92-27,23.72-1.7,5.72,1.56,11.73,7.28,13.43,1.02.31,2.06.45,3.08.45,4.66,0,8.96-3.04,10.35-7.73,2.92-9.82,21.36-11.32,32.08-11.34l72.18-.13c-7.26,30.73-7.08,63.3,1.19,93.57,1.31,4.8,5.67,7.96,10.41,7.96.94,0,1.9-.12,2.85-.39,5.75-1.57,9.15-7.51,7.57-13.27-7.84-28.7-7.44-59.76.45-88.63,4.08-1.55,6.99-5.47,6.98-10.09,0-2.17-.66-4.18-1.76-5.87,2.22-5.79,4.75-11.44,7.6-16.93,5.16,3.28,10.5,6.61,16.28,9.46,14.23,7.01,29.4,10.29,44.06,13.47,4.41.95,8.81,1.91,13.18,2.96,20.25,4.89,39.95,12.14,58.56,21.54,7.86,3.97,14.57,10.31,15.96,15.08.41,1.42.19,2.22-.31,3.05-1.58,2.65-1.87,5.71-1.09,8.46-3.32,3.17-6.81,6.14-10.57,8.82-4.86,3.46-5.99,10.21-2.53,15.06,2.11,2.96,5.43,4.53,8.81,4.53,2.17,0,4.36-.65,6.26-2,38.78-27.65,55.08-74.99,70.84-120.77,1.12-3.26,2.25-6.45,3.38-9.68,0,0,.02,0,.03.01,15.11,4.83,30.63,8.42,46.36,10.92,1.98,3.45,5.57,5.47,9.33,5.47,1.66,0,3.34-.38,4.91-1.19,1.23-.63,2.43-1.3,3.65-1.96,11.11,1.14,22.29,1.7,33.47,1.7,2.21,0,4.42-.02,6.63-.07,11.25,2.33,21.66,11.78,31.75,20.97l3.11,2.82c16.48,14.87,32.07,22.35,46.5,22.35,4.19,0,8.29-.63,12.29-1.9,5.69-1.8,8.84-7.87,7.03-13.56-1.46-4.6-5.71-7.54-10.29-7.54-1.08,0-2.19.16-3.27.51-1.83.58-3.77.87-5.79.87-8.91,0-19.63-5.62-31.99-16.77l-3.04-2.76c-2.83-2.58-5.75-5.22-8.77-7.81,17.92-2.41,35.62-6.34,52.84-11.68.57,2.94,2.31,5.64,5.1,7.28,20.76,12.16,44.41,19.69,68.39,21.78,5.32.46,10.62.66,15.89.66,18.03,0,35.8-2.36,53.11-4.66l67.51-8.97c4.33,7.63,9.23,14.92,14.7,21.75,2.13,2.66,5.27,4.05,8.44,4.05,2.37,0,4.75-.77,6.75-2.37,4.66-3.73,5.4-10.53,1.67-15.18-2.91-3.63-5.57-7.45-8.11-11.35l12.52-1.66c5.92-.78,10.07-6.21,9.29-12.13-.72-5.43-5.41-9.38-10.7-9.38-.47,0-.95.03-1.42.1l-20.71,2.75c-5.63-12.65-9.5-26.07-11.36-39.76,35.09,7.05,70.64,21.66,103.91,43.36,3,1.96,5.98,4.03,8.96,6.09-2.61,1.43-4.65,3.88-5.38,7.01-5.67,24.52-.3,51.36,14.36,71.8,2.11,2.94,5.42,4.51,8.79,4.51,2.18,0,4.38-.66,6.28-2.02,4.85-3.48,5.96-10.22,2.48-15.07-11.1-15.48-15.16-35.79-10.87-54.35.05-.21.04-.42.08-.63,8.92,6.62,17.73,13.43,26.38,20.14.6.46,1.2.93,1.8,1.4-3.94,20.87,2.11,43.3,16.22,59.25,2.13,2.41,5.11,3.65,8.1,3.65,2.54,0,5.1-.89,7.15-2.71,4.47-3.95,4.89-10.78.94-15.25-6.99-7.9-11.07-18.47-11.78-29.14,29.89,22.45,61.46,43.28,98.25,53.56,1.01.28,2.02.41,3.01.41,4.88,0,9.36-3.23,10.74-8.16,1.66-5.93-1.81-12.09-7.74-13.75-13.64-3.81-26.5-9.25-38.91-15.8.49-2.06.38-4.28-.45-6.4-15.54-39.79-20.25-82.98-13.72-125.16,10.64-.85,21.54-2.86,31.8-7.37,4.13,19.17,5.92,38.85,5.07,58.46-.38,8.92-3.13,13.78-4.55,13.98-.49.07-.99.07-1.5.09-2.82.11-7.54.3-11.85,3.59-5.78,4.4-7.06,13.07-2.85,19.32,2.47,3.68,6.4,5.68,10.44,5.68,2.15,0,4.34-.57,6.34-1.75,2.38-1.4,4.02-3.56,4.8-5.99.56-.14,1.1-.32,1.64-.49,11.5,18.85,26.85,35.6,44.69,48.58,1.92,1.39,4.14,2.07,6.35,2.07,3.34,0,6.63-1.54,8.74-4.45,3.51-4.83,2.44-11.58-2.38-15.09-16.58-12.07-30.74-27.83-40.95-45.61-.26-.45-.58-.84-.89-1.24,2.04-5,3.27-10.96,3.56-17.74.1-2.31.16-4.62.19-6.93,15.59,5.35,30.24,12.91,43.66,22.62,1.91,1.39,4.13,2.05,6.33,2.05,3.35,0,6.64-1.55,8.76-4.47,3.5-4.83,2.42-11.59-2.42-15.08-17.35-12.57-36.52-21.95-57.02-28.01-.33-4.31-.79-8.62-1.34-12.91h52.83c5.97,0,10.8-4.83,10.8-10.8s-4.83-10.8-10.8-10.8h-55.65c-.3,0-.59.06-.88.09-3.82-17.66-9.52-34.9-17.03-51.34,4.16,1.94,8.3,3.92,12.4,6.02,1.58.81,3.26,1.19,4.92,1.19,3.92,0,7.7-2.14,9.62-5.87,2.72-5.31.63-11.82-4.68-14.54-24-12.32-49.04-21.94-74.84-28.95,0-2.63-.93-5.26-2.86-7.34-9.96-10.72-19.42-21.36-25.62-33.53-5.66-11.11-8.48-23.52-8.35-35.92,25.19,3.3,50.61,4.97,76.03,4.97,14.44,0,28.88-.54,43.28-1.61,6.15-.46,10.75-5.81,10.3-11.96-.44-5.9-5.31-10.32-11.21-10.32-.25,0-.49,0-.74.02-13.77,1.02-27.59,1.53-41.41,1.53-24.33,0-48.67-1.58-72.79-4.72,0-.01,0-.03.01-.04,1.51-4.83-.57-9.9-4.7-12.42,39.81-36.74,72.72-84,97.94-140.8,2.42-5.45-.04-11.84-5.49-14.25-1.43-.64-2.92-.94-4.38-.94-4.14,0-8.09,2.4-9.87,6.43-21.52,48.47-48.81,89.56-81.32,122.57-7.92-22.07-12.14-45.79-12.2-69.16-.01-6.15-5.01-11.13-11.16-11.13h-.03c-5.17.01-9.46,3.55-10.72,8.32-.69-.03-1.37-.04-2.05-.04-22.57,0-39.69,13.82-56.26,27.28-12.43,10.08-24.16,19.61-37.3,22.69-4.67,1.1-9.67,1.39-14.91,1.39-2.77,0-5.61-.08-8.5-.17l8.65-8.68c1.07-1.07,2.15-2.16,3.22-3.24,1.08-.23,2.15-.57,3.16-1.14,2.98-1.67,4.84-4.5,5.45-7.6,9.21-9.44,18.26-19.25,26.49-29.84,44.01-6.83,79.51-21.63,105.69-44.12,19.56-16.79,34.03-37.69,48.02-57.9,3.51-5.07,2.24-12.01-2.83-15.52-1.94-1.34-4.15-1.98-6.34-1.98-3.54,0-7.02,1.68-9.18,4.81-13.18,19.05-26.82,38.74-44.2,53.67-18.86,16.19-43.65,27.88-73.93,34.98,9.74-17.85,16.22-36.8,20.68-56.34,29.16-.91,57.5-17.2,72.14-42.69,2.8-4.88,1.47-10.95-2.83-14.31,9.96-3.75,19.59-8.34,28.6-13.85,5.26-3.21,6.91-10.08,3.69-15.34-2.1-3.44-5.77-5.34-9.52-5.34-1.99,0-4,.53-5.81,1.64-22.91,14.02-50.09,21.53-77.02,21.64.71-9.7,1.28-19.39,1.84-29.03l-21.57-1.26c-1.55,26.54-3.08,52.35-7.19,76.88-3.06,1.61-5.34,4.58-5.88,8.26-.48,3.27.55,6.39,2.52,8.74-.25,1.09-.49,2.18-.75,3.27-.25-.56-.52-1.11-.88-1.64l-40.09-59.84c-2.15-3.21-5.68-4.95-9.28-4.95-2.13,0-4.29.61-6.2,1.89-5.12,3.43-6.49,10.36-3.06,15.48l40.09,59.84c2.15,3.21,5.68,4.95,9.28,4.95,2.14,0,4.29-.61,6.2-1.89.05-.03.09-.08.14-.11-2.88,9.3-6.4,18.33-10.69,27.08-.88-2.02-2.34-3.8-4.36-5.05-14.8-9.12-26.57-23.02-33.14-39.11-1.77-4.32-5.94-6.94-10.33-6.94-1.4,0-2.83.27-4.21.83-5.71,2.33-8.44,8.84-6.11,14.55,8.35,20.44,23.29,38.08,42.08,49.67,1.83,1.13,3.85,1.66,5.85,1.66.55,0,1.09-.12,1.63-.21-1.42,2.24-2.88,4.47-4.41,6.65-3.3.42-6.63.82-10.03,1.15-6.13.6-10.62,6.07-10.01,12.2.28,2.88,1.64,5.4,3.63,7.19-2.65,2.98-5.37,5.92-8.11,8.82-10.29-16.35-22.1-31.79-35.19-46.07,3.02-24.35,2.56-48.94-1.44-73.17-.9-5.47-5.66-9.34-11-9.34-.6,0-1.22.05-1.83.15-6.08,1.01-10.19,6.75-9.19,12.83,2.68,16.21,3.6,32.6,2.84,48.96-9.13-8.32-18.73-16.12-28.74-23.29-1.97-1.41-4.24-2.09-6.49-2.09-3.47,0-6.9,1.62-9.08,4.66-3.59,5.01-2.44,11.98,2.57,15.57,32.69,23.43,60.61,53.86,81.41,88.32-.53.54-1.07,1.08-1.6,1.61l-26.32,26.39c-1.08.31-2.17.61-3.26.99-1.33.47-2.5,1.19-3.52,2.05l-23.74-54.2c-1.77-4.05-5.74-6.47-9.9-6.47-1.45,0-2.92.29-4.33.91-5.47,2.39-7.95,8.76-5.56,14.23l28.28,64.57-17.84,17.88c-3.02-9.12-6.89-17.96-11.57-26.27-1.99-3.52-5.65-5.5-9.42-5.5-1.8,0-3.62.45-5.3,1.39-5.2,2.93-7.04,9.52-4.1,14.72,5.82,10.31,10.16,21.58,12.93,33.17l-18.13,18.18c-4.35-11.88-11.43-22.66-20.51-31.42.73-1.17,1.27-2.5,1.51-3.95,4.35-26.4,13.22-51.6,26.37-74.9,2.93-5.19,1.1-11.79-4.1-14.72-1.68-.95-3.5-1.4-5.29-1.4-3.77,0-7.44,1.98-9.42,5.49-3.89,6.89-7.41,13.95-10.61,21.13l-25.8-14.44c-1.67-.93-3.48-1.38-5.26-1.38-3.79,0-7.46,1.99-9.44,5.53-2.91,5.21-1.05,11.79,4.15,14.7l28.35,15.86c-3.87,11.24-6.9,22.77-9.14,34.52-1.78-.94-3.58-1.83-5.43-2.63-2.8-1.21-5.58-2.23-8.27-3.22-5.07-1.86-9.86-3.62-13.5-6.24-10.16-7.29-13.59-22.09-16.47-37.92-.95-5.21-5.46-8.87-10.58-8.87-.65,0-1.31.06-1.98.18-5.87,1.07-9.76,6.69-8.69,12.56,3.56,19.54,8.43,39.62,25.14,51.6,6.03,4.33,12.73,6.79,18.64,8.96,2.4.88,4.8,1.76,7.13,2.77,17.99,7.79,31.93,25.28,35.52,44.55.05.25.14.48.2.73l-26.27,26.34c-2.27,1.3-4.51,2.72-6.71,4.26-.76-14.97-5.15-29.79-12.94-42.53-2.04-3.33-5.58-5.16-9.22-5.16-1.92,0-3.87.51-5.63,1.59-5.09,3.12-6.69,9.77-3.57,14.85,9.77,15.97,12.54,36.25,7.39,54.26-.37,1.29-.45,2.59-.35,3.85l-92.51,92.75c-2.51,2.52-5.04,5.04-7.57,7.57-3.68-.74-7.36-1.59-11.03-2.69-1.03-.31-2.07-.45-3.1-.45-4.65,0-8.95,3.03-10.35,7.71-1.62,5.42,1.25,11.07,6.43,13.1-8.07,7.7-16.33,15.21-24.88,22.32.14-8.13-.54-16.27-2.14-24.22-1.03-5.12-5.53-8.68-10.56-8.68-.71,0-1.43.07-2.16.22-5.85,1.18-9.64,6.87-8.46,12.72,2.5,12.43,2.28,25.43-.43,37.86-4.14,2.79-8.37,5.45-12.68,7.97-18.08-2.2-35.93-6.01-53.22-11.49,8.08-21.3,17.23-42.03,27.42-62.13,22.76-1.45,50.5-4.91,71.65-21.26,15.36-11.87,24.75-28.24,33.84-44.08,2.27-3.96,4.53-7.91,6.89-11.76,12.98-21.25,26.92-32.86,41.43-34.51,5.93-.68,10.18-6.03,9.51-11.96-.63-5.52-5.32-9.57-10.76-9.57-.4,0-.8.02-1.2.07-21.48,2.45-40.79,17.49-57.42,44.72-2.46,4.02-4.82,8.14-7.19,12.27-8.4,14.65-16.34,28.48-28.31,37.73-12.46,9.63-28.31,13.58-46.31,15.59,16.6-29.67,35.54-57.85,56.72-84.33,6.54-8.18,13.47-16.4,20.16-24.36,20.96-24.88,42.63-50.61,57.9-81.03,8.99-17.9,15.42-36.76,20.68-55.88,30.92-3.09,59.41-20.7,77.15-45.92,6.29-2.26,12.79-3.91,19.38-4.93.03,0,.06,0,.09,0,1.03,0,2.05-.19,3.04-.47,4.39-.55,8.8-.83,13.22-.83,3.87,0,7.74.21,11.59.65.42.05.84.07,1.25.07,5.61,0,10.44-4.21,11.08-9.91.69-6.12-3.72-11.64-9.84-12.34-3.65-.41-7.32-.6-10.99-.69,4.62-11.78,6.64-24.58,6.02-37.24,8.22-9.56,18.63-17.05,30.38-21.74,4.14-1.65,6.9-5.61,7.02-10.06.23-8.61.08-16.7-.35-24.43,14.6-7.68,29.1-16.19,41.75-27.84l42.58,3.88c.34.03.68.05,1.02.05,5.7,0,10.57-4.35,11.1-10.15.56-6.13-3.96-11.56-10.1-12.12l-27.11-2.47c8.69-13.9,13.02-29.09,12.17-43.79-.35-5.98-5.38-10.51-11.27-10.51-.17,0-.34,0-.51.01-6.15.36-10.85,5.63-10.5,11.78.77,13.38-4.98,27.74-15.93,40.26-5.58.12-10.3,4.4-10.82,10.09,0,.11,0,.2,0,.31-7.62,6.28-16.18,11.63-25.03,16.56-2.73-15.95-7.25-30.02-13.8-42.74-1.98-3.85-5.89-6.06-9.94-6.06-1.72,0-3.46.4-5.09,1.24-5.48,2.82-7.64,9.55-4.82,15.02,6.49,12.61,10.67,27.03,12.79,43.99-3.63,3.31-4.79,8.72-2.44,13.3.92,1.8,2.29,3.2,3.88,4.23.15,3.81.23,7.73.21,11.78-7.35,3.6-14.21,8.1-20.46,13.34-1.67-4.53-3.69-8.93-6.15-13.1-2.79-4.73-6.03-9.38-9.17-13.88-10.39-14.91-16.92-25.37-13.17-34.63,2.31-5.71-.44-12.21-6.15-14.53-1.37-.56-2.79-.82-4.19-.82-4.41,0-8.58,2.63-10.34,6.97-8.59,21.17,4.79,40.36,15.54,55.78,3.03,4.35,5.89,8.45,8.25,12.45,4.21,7.14,6.82,15.12,7.94,23.31-.15,1.52,0,3.05.46,4.51.88,12.94-2,26.15-8.49,37.36.82-2.62,1.56-5.27,2.17-7.96,1.35-6.01-2.44-11.98-8.45-13.33-.81-.18-1.62-.27-2.42-.27-5.1,0-9.74,3.51-10.9,8.72-6.99,31.22-34.5,57-65.75,63.65,2.14-9.19,4.12-18.38,6.09-27.49,2.74-12.73,5.5-25.54,8.18-38.41,1.5-.77,2.86-1.87,3.93-3.33,7.07-9.62,17.84-16.51,29.54-18.9,6.04-1.23,9.94-7.12,8.71-13.16-1.08-5.29-5.74-8.93-10.93-8.93-.74,0-1.48.07-2.23.23-7.72,1.57-15.13,4.55-21.91,8.57,5.56-29.21,10.29-58.74,13.23-88.54,1.47-.9,2.78-2.1,3.74-3.68,2.31-3.8,7.88-5.42,16.79-7.63,5.73-1.42,11.65-2.89,17.35-5.7,14.9-7.35,24.8-23.46,24.62-40.08-.07-6.12-5.05-11.04-11.15-11.04h-.12c-6.16.07-11.1,5.12-11.04,11.28.09,8.09-4.92,16.24-12.17,19.82-3.54,1.75-8.06,2.87-12.86,4.06-4.08,1.01-8.55,2.15-12.92,3.85.65-11.92,1-23.88.9-35.87-.11-12.98-.65-26.33-1.17-39.26-.05-1.15-.09-2.3-.14-3.46.34-.56.62-1.16.86-1.79,1.89-1.91,3.82-3.78,5.79-5.61.81.18,1.65.29,2.5.29.3,0,.6-.01.91-.04,5.16-.51,10.33-.77,15.5-.77,11.08,0,22.14,1.17,33.03,3.51.79.17,1.58.25,2.36.25,5.15,0,9.77-3.58,10.9-8.81,1.3-6.03-2.54-11.96-8.56-13.25-8.88-1.91-17.86-3.13-26.89-3.68,4.99-3.04,10.09-5.87,15.32-8.41,5.55-2.69,7.86-9.37,5.17-14.91-1.93-3.98-5.9-6.29-10.04-6.29-1.63,0-3.3.36-4.87,1.12-15.33,7.44-29.79,16.92-42.92,27.95-.63-39.95,2.25-79.16,21.35-111.23,3.05-5.12,1.37-11.76-3.75-14.81-1.73-1.03-3.64-1.52-5.52-1.52h0ZM1051.58,320.12c-10.18,15.73-28.18,26.43-46.88,28.62,1.19-7.68,2.17-15.41,2.97-23.17.55,0,1.09.02,1.64.02,14.18,0,28.43-1.93,42.27-5.47h0ZM519.87,637.61c-3.32-26.6,1.75-54.42,7.08-83.53,6.24-34.06,12.69-69.28,5.13-104.05-.47-2.18-1.57-4.06-3.07-5.5l24.65-55.17c6.61,9.83,15.39,17.84,23.98,25.61,10.04,9.09,18.98,17.21,23.07,26.81-.2,0-.4-.01-.59-.01-.64,0-1.28.05-1.93.18-5.86,1.14-9.68,6.81-8.55,12.66,1.53,7.87,2.22,15.9,2.15,23.94-2.62,3.52-2.8,8.17-.67,11.83-1.68,16.23-6.49,32.17-14.14,46.53-5.76-12.15-13.31-23.44-22.69-33.29-2.12-2.23-4.98-3.36-7.83-3.36-2.68,0-5.35.99-7.44,2.98-4.32,4.11-4.49,10.95-.38,15.27,37.23,39.12,40.36,107.94,6.85,150.29-2.22,2.8-2.79,6.36-1.92,9.56-7.46,11.39-14.56,23.02-21.29,34.88-4.44-14.42-9.51-28.67-15.14-42.69.56-.12,1.09-.32,1.62-.53,1.5.77,3.19,1.19,4.92,1.19,1.05,0,2.12-.16,3.18-.48,5.13-1.58,8.2-6.64,7.49-11.79,2.52-1.03,5.19-1.73,7.9-2.02,5.93-.65,10.21-5.98,9.57-11.91-.6-5.53-5.31-9.64-10.71-9.64-.4,0-.79.02-1.2.07-3.42.37-6.78,1.13-10.04,2.18h0ZM440.92,652.99c-.32-1.74-.6-3.48-.86-5.24,1.42-1.21,2.58-2.76,3.27-4.64,1.94-5.28-.39-11.03-5.19-13.63-.28-3.85-.51-7.68-.74-11.41l-1.65-27.72c4.01-2.92,5.73-8.25,3.82-13.08l-5.41-13.7-2.24-37.68c19.66-36.37,23.35-77.83,22.33-116.86,2.81,25.08,13.72,50.03,25.9,75.3,1.32,2.74,3.73,4.57,6.45,5.29-2.32,4.32-4.82,8.2-7.62,11.08-1.25-6.69-2.82-13.36-4.87-20.01-1.44-4.64-5.7-7.61-10.3-7.61-1.06,0-2.14.16-3.21.49-5.7,1.76-8.89,7.81-7.13,13.51,16.33,52.79,2.11,110.17-12.54,165.91h0ZM965.61,556.12c.61,0,1.23-.05,1.85-.15,6.08-1.01,10.18-6.76,9.17-12.84-1.63-9.79-6.19-18.96-12.75-26.34,9.45-5.36,18-12.26,26.36-19.05,14.72-11.94,27.51-22.33,42.27-22.33.7,0,1.39.02,2.1.07.02,0,.04,0,.06,0,.11,0,.22-.02.33-.02,0,0,.02,0,.03,0,2.03,22.71,7.44,45.29,16.02,66.25-2.17,1.91-4.35,3.81-6.57,5.65-36.07,30.03-77.41,50.46-119.59,59.58,7.7-18.02,13.57-36.82,17.45-56.03,1.22-6.04-2.69-11.92-8.73-13.14-.75-.15-1.51-.23-2.25-.23-5.2,0-9.83,3.67-10.9,8.96-4.25,21.05-11.07,41.57-20.25,60.98-.54,1.15-.82,2.35-.96,3.55-5.84.61-11.68,1.06-17.5,1.23-2.99.08-5.99.12-9.02.12-6.08,0-12.28-.13-18.72-.27-6.42-.14-12.88-.29-19.33-.29-9.31,0-18.6.29-27.71,1.3l25.65-25.71c1.74,1.18,3.81,1.88,6.02,1.88.4,0,.8-.02,1.2-.07,5.93-.65,10.21-5.99,9.55-11.92-.22-1.97-.51-3.94-.81-5.9l27.6-27.67c.78-.15,1.55-.37,2.31-.7,3.4-1.49,5.64-4.52,6.28-7.91l7.76-7.78c3.96-.7,8.16-.91,12.52-.91,2.94,0,5.96.09,9.03.19,3.26.1,6.56.2,9.9.2,5.29,0,10.65-.26,16.08-1.19.09.05.15.13.24.18,7.41,4.43,12.9,12.48,14.32,21,.91,5.46,5.64,9.32,10.99,9.32h0ZM460.81,857.05c-4.69-7.77-9.21-17.25-12.69-29.13.1-2.21-.46-4.42-1.7-6.34-6.52-26.91-7.65-65.21,4.97-121.76,3.23-3.06,4.3-7.74,2.8-11.88.48-1.96.94-3.89,1.46-5.89,1.58-6.15,3.21-12.33,4.84-18.54,12.19-46.29,24.63-93.78,21.31-140.64,15.33-7.04,23.23-24.67,28.48-36.41l3.56-7.97c.76,23.1-3.58,46.88-8.12,71.68-5.98,32.67-12.14,66.32-5.82,99.37-.39.38-.75.8-1.13,1.2-3-6.71-6.11-13.38-9.38-19.95-1.88-3.8-5.7-6-9.67-6-1.62,0-3.26.36-4.81,1.13-5.34,2.65-7.52,9.14-4.86,14.48,14.63,29.44,26.55,60.43,35.42,92.1.29,1.02.73,1.95,1.27,2.8-.69,1.52-1.08,3.21-.98,4.99.05.99.28,1.91.57,2.81-1.46,2.92-2.9,5.86-4.32,8.8-3.16-6.38-8.4-11.92-13.7-15.22-9.33-5.8-11.38-9.26-11.79-10.21,2.51-5.26.38-11.59-4.84-14.26-1.57-.8-3.25-1.18-4.9-1.18-3.93,0-7.73,2.15-9.64,5.89-4.57,8.95-4.85,22.82,19.77,38.11,2.99,1.86,5.37,5.33,6.2,7.46-3.89,3.15-5.18,8.69-2.81,13.32,1.7,3.32,4.9,5.29,8.34,5.7-4.8,11.38-9.33,22.91-13.52,34.61-2.31,6.45-4.57,13.01-6.84,19.61-2.44,7.09-4.9,14.22-7.45,21.29h0ZM1051.41,590.79c-3.89-4.13-7.49-8.52-10.91-13.06,3.69-2.67,7.34-5.43,10.95-8.27-.36.84-.65,1.72-.8,2.67-.37,2.4.08,4.72,1.1,6.73-.34,3.97-.47,7.95-.34,11.93h0ZM1078.2,656.31c-8.23-1.51-16.5-2.84-24.86-3.82-5.45-.64-11.62-1.23-18.25-1.56-.56-3.54-2.84-6.73-6.38-8.25-19.08-8.2-37.84-17.53-56.02-27.75,17.09-6.7,33.78-15.15,49.84-25.16,8.89,12,19.21,22.85,30.86,32.21,1.49,1.2,3.21,1.94,4.97,2.23,1.11,2.78,2.33,5.52,3.69,8.2,4.46,8.76,10.04,16.53,16.15,23.9h0ZM904.08,705.23c1.42-4.03.36-8.7-3.05-11.69-16.32-14.34-22.22-39.76-14.21-59.92,19.73-.92,39.52-4.2,59.03-9.69.62.62,1.3,1.2,2.09,1.68,16.4,9.81,33.39,18.85,50.69,27.1-7.82,1.3-15.71,3.31-23.37,6.33-16,6.3-29.58,16.12-42.72,25.62l-28.45,20.58h0ZM721.92,698.38l54.56-54.7c16.71-8.64,36.61-10.27,57.87-10.27,6.29,0,12.7.14,19.19.29,3.45.08,6.96.13,10.47.19-7.05,26.92,1.66,57.35,22.77,75.89,2.05,1.8,4.59,2.68,7.12,2.68.08,0,.15-.02.22-.02l-58.18,42.09c-1.93,1.4-3.23,3.32-3.92,5.43-18.94,1.42-37.3,5.1-54.67,11.14-15.07,5.24-29.39,12.16-43.24,18.85-8.57,4.14-17.43,8.42-26.2,12.16-37.03,15.78-77.58,23.71-118.07,23.71-.43,0-.87,0-1.3,0,18.32-13.62,35-29.18,51.06-45.01,6.65.81,13.24,1.19,19.71,1.19,28.07,0,53.93-6.83,73.29-13.96,35.28-13.01,67.09-32.95,97.82-52.53,8.92.61,17.8,1.55,26.62,2.94.57.09,1.13.13,1.69.13,5.21,0,9.82-3.8,10.66-9.13.93-5.89-3.1-11.42-9-12.34-9.79-1.54-19.6-2.58-29.4-3.24-.99-.28-2.01-.43-3.04-.43-.62,0-1.24.05-1.86.17-7.41-.39-14.82-.57-22.21-.57-27.54,0-54.95,2.46-81.96,5.34h0ZM926.16,770.46c-20.27-5.87-40.62-9.46-60.61-10.69l79.64-57.61c12.05-8.71,24.52-17.73,37.98-23.03,11.77-4.63,24.94-6.89,40.97-6.89,8.1,0,16.94.58,26.7,1.71,33.57,3.92,66.11,12.46,97.13,25.34-.12.05-.25.07-.37.13-5.42,2.5-7.78,8.92-5.28,14.33,4.02,8.7,7.45,17.66,10.34,26.79-12.72,6.69-28.39,7.66-43.25,7.66-2.98,0-5.92-.04-8.8-.08l-76.6-1.02c-1.42-.66-2.99-1.04-4.6-1.04-.85,0-1.72.1-2.58.33-.58.15-1.12.37-1.65.6l-23.18-.31c3.89-6.31,7.11-13.04,9.44-20.1,1.87-5.67-1.22-11.77-6.88-13.64-1.12-.37-2.26-.55-3.38-.55-4.53,0-8.76,2.88-10.26,7.43-8.12,24.66-29.55,44.43-54.76,50.65h0ZM790.72,714.82c-21.04,12.72-42.75,24.52-65.59,32.94-17.3,6.38-40.33,12.47-65.04,12.6l39.69-39.79c1.54.84,3.28,1.34,5.12,1.34.4,0,.8-.02,1.2-.07,27.87-3.08,56.28-6.22,84.61-7.02h0ZM1113.95,884.7c-15.93-10.64-31.47-22.7-47.39-35.06-16.9-13.11-34.38-26.68-52.58-38.54-18.53-12.09-37.76-22.11-57.28-30.03,6.4-3.74,12.41-8.16,17.86-13.2.53.09,1.06.18,1.62.19l35.61.48c8.01,22.07,24.25,41.34,44.79,52.66,1.65.91,3.44,1.34,5.2,1.34,3.81,0,7.5-2.02,9.47-5.59,2.88-5.22.98-11.79-4.25-14.67-13.59-7.49-24.77-19.45-31.65-33.42l64.98.87c1.35.02,2.8.02,4.2.04-2.87,20.56-3.28,41.3-1.3,61.81-1.33.15-2.66.22-4,.22-4.14,0-8.29-.72-12.14-2.2-1.27-.49-2.58-.72-3.87-.72-4.35,0-8.44,2.64-10.09,6.93-2.14,5.57.65,11.82,6.21,13.96,6.37,2.44,13.23,3.68,20.07,3.68,2.27,0,4.54-.16,6.79-.43,1.93,10.69,4.5,21.28,7.74,31.69h0ZM746.28,838.73c-12.89-2.63-25.44-7.06-37.11-13.11,2.5-.99,5.03-1.94,7.5-2.99,9.26-3.95,18.36-8.34,27.16-12.6,13.89-6.71,27.01-13.05,40.87-17.87,20.46-7.12,42.52-10.6,65.34-10.61,8.46,0,17.03.48,25.66,1.43,1.52,15.78,5.35,31.38,11.27,46.16l-60.5,8.03c-16.55,2.2-33.53,4.42-50.23,4.42-2.84,0-5.68-.06-8.5-.2,10.99-16.71,31.1-27.01,51.08-27.01,4.56,0,9.12.54,13.56,1.66.89.22,1.78.33,2.65.33,4.82,0,9.23-3.25,10.47-8.15,1.47-5.78-2.03-11.66-7.82-13.12-6.29-1.59-12.71-2.36-19.1-2.36-28.32,0-56.18,15.03-70.82,39.77-1.15,1.95-1.62,4.12-1.47,6.22h0ZM435.18,913.09c-5.37-9.66-15.39-17.41-24.11-21.81-2.26-1.14-4.54-2.24-6.83-3.33,14.1-3.51,27.14-11.43,36.56-22.47,2.39,4.24,5,8.39,7.89,12.44.82,1.15,1.86,2.02,2.98,2.74-4.83,11.47-10.2,22.44-16.48,32.43h0Z"/>
</svg>